<svg width="30" height="30" viewBox="0 0 30 30" fill="none" xmlns="http://www.w3.org/2000/svg">
<path d="M0 15C0 6.71573 6.71573 0 15 0V0C23.2843 0 30 6.71573 30 15V15C30 23.2843 23.2843 30 15 30V30C6.71573 30 0 23.2843 0 15V15Z" fill="#0068FF" fill-opacity="0.1"/>
<path d="M18.7188 16H16.375V23H13.25V16H10.6875V13.125H13.25V10.9062C13.25 8.40625 14.75 7 17.0312 7C18.125 7 19.2812 7.21875 19.2812 7.21875V9.6875H18C16.75 9.6875 16.375 10.4375 16.375 11.25V13.125H19.1562L18.7188 16Z" fill="#3F5AF3"/>
</svg>
