<svg width="30" height="30" viewBox="0 0 30 30" fill="none" xmlns="http://www.w3.org/2000/svg">
<path d="M0 15C0 6.71573 6.71573 0 15 0V0C23.2843 0 30 6.71573 30 15V15C30 23.2843 23.2843 30 15 30V30C6.71573 30 0 23.2843 0 15V15Z" fill="#0068FF" fill-opacity="0.1"/>
<path d="M15 11.4062C16.9688 11.4062 18.5938 13.0312 18.5938 15C18.5938 17 16.9688 18.5938 15 18.5938C13 18.5938 11.4062 17 11.4062 15C11.4062 13.0312 13 11.4062 15 11.4062ZM15 17.3438C16.2812 17.3438 17.3125 16.3125 17.3125 15C17.3125 13.7188 16.2812 12.6875 15 12.6875C13.6875 12.6875 12.6562 13.7188 12.6562 15C12.6562 16.3125 13.7188 17.3438 15 17.3438ZM19.5625 11.2812C19.5625 10.8125 19.1875 10.4375 18.7188 10.4375C18.25 10.4375 17.875 10.8125 17.875 11.2812C17.875 11.75 18.25 12.125 18.7188 12.125C19.1875 12.125 19.5625 11.75 19.5625 11.2812ZM21.9375 12.125C22 13.2812 22 16.75 21.9375 17.9062C21.875 19.0312 21.625 20 20.8125 20.8438C20 21.6562 19 21.9062 17.875 21.9688C16.7188 22.0312 13.25 22.0312 12.0938 21.9688C10.9688 21.9062 10 21.6562 9.15625 20.8438C8.34375 20 8.09375 19.0312 8.03125 17.9062C7.96875 16.75 7.96875 13.2812 8.03125 12.125C8.09375 11 8.34375 10 9.15625 9.1875C10 8.375 10.9688 8.125 12.0938 8.0625C13.25 8 16.7188 8 17.875 8.0625C19 8.125 20 8.375 20.8125 9.1875C21.625 10 21.875 11 21.9375 12.125ZM20.4375 19.125C20.8125 18.2188 20.7188 16.0312 20.7188 15C20.7188 14 20.8125 11.8125 20.4375 10.875C20.1875 10.2812 19.7188 9.78125 19.125 9.5625C18.1875 9.1875 16 9.28125 15 9.28125C13.9688 9.28125 11.7812 9.1875 10.875 9.5625C10.25 9.8125 9.78125 10.2812 9.53125 10.875C9.15625 11.8125 9.25 14 9.25 15C9.25 16.0312 9.15625 18.2188 9.53125 19.125C9.78125 19.75 10.25 20.2188 10.875 20.4688C11.7812 20.8438 13.9688 20.75 15 20.75C16 20.75 18.1875 20.8438 19.125 20.4688C19.7188 20.2188 20.2188 19.75 20.4375 19.125Z" fill="#3F5AF3"/>
</svg>
