<svg width="30" height="30" viewBox="0 0 30 30" fill="none" xmlns="http://www.w3.org/2000/svg">
<path d="M0 15C0 6.71573 6.71573 0 15 0C23.2843 0 30 6.71573 30 15C30 23.2843 23.2843 30 15 30C6.71573 30 0 23.2843 0 15Z" fill="#0068FF" fill-opacity="0.1"/>
<g clip-path="url(#clip0_9036_11)">
<path d="M16.3031 11.928L21.4029 6H20.1944L15.7663 11.1472L12.2296 6H8.15039L13.4986 13.7835L8.15039 20H9.35894L14.0351 14.5643L17.7702 20H21.8494L16.3028 11.928H16.3031ZM14.6479 13.8521L14.106 13.077L9.79439 6.90977H11.6506L15.1301 11.887L15.672 12.662L20.195 19.1316H18.3387L14.6479 13.8524V13.8521Z" fill="#3F5AF3"/>
</g>
<defs>
<clipPath id="clip0_9036_11">
<rect width="14" height="14" fill="white" transform="translate(8 6)"/>
</clipPath>
</defs>
</svg>
