<svg width="128" height="128" viewBox="0 0 128 128" fill="none" xmlns="http://www.w3.org/2000/svg">
<g clip-path="url(#clip0_8665_149)">
<path d="M51.4345 118.929L64.5681 110.267L46.3699 82.6751L33.2363 91.3374L51.4345 118.929ZM36.4484 92.0022L45.7147 85.8906L61.3594 109.611L52.0931 115.722L36.4484 92.0022Z" fill="#D0D0D0"/>
<path d="M69.6825 106.894L82.8161 98.2312L57.8641 60.3997L44.7305 69.062L69.6825 106.894ZM47.9434 69.7263L57.2097 63.6146L79.6082 97.5746L70.3419 103.686L47.9434 69.7263Z" fill="#D0D0D0"/>
<path d="M87.9306 94.8577L101.064 86.1954L82.866 58.6038L69.7324 67.2661L87.9306 94.8577ZM72.9454 67.9304L82.2117 61.8187L97.8563 85.5388L88.59 91.6504L72.9454 67.9304Z" fill="#D0D0D0"/>
<path d="M106.181 82.8206L119.315 74.1583L87.6483 26.1465L74.5146 34.8088L106.181 82.8206ZM77.725 35.4711L86.9922 29.3589L116.107 73.5017L106.84 79.6139L77.725 35.4711Z" fill="#D0D0D0"/>
<path d="M67.5266 21.9805C68.3359 23.2076 69.4836 24.0695 70.7704 24.5408L68.3025 44.1608C67.0422 44.1568 65.7672 44.5055 64.6391 45.2495C62.8873 46.405 61.8654 48.2607 61.6933 50.211L49.6888 50.8585C49.5115 50.1905 49.2286 49.5407 48.8274 48.9323C46.8192 45.8876 42.6761 45.0421 39.6331 47.0491C36.5833 49.0606 35.7396 53.1952 37.7477 56.2399C38.149 56.8483 38.6321 57.3599 39.1758 57.7851L33.8576 68.5701C31.9971 67.9605 29.8889 68.1692 28.1371 69.3247C25.089 71.3351 24.2452 75.4697 26.2567 78.5195C28.2671 81.5676 32.3944 82.4113 35.4424 80.4009C38.4871 78.3928 39.3468 74.2599 37.3364 71.2118C36.934 70.6017 36.4474 70.0887 35.8998 69.665L41.218 58.8799C43.0785 59.4896 45.1866 59.2808 46.9385 58.1253C48.6853 56.9733 49.7106 55.1153 49.8878 53.169L61.8911 52.5235C62.0701 53.1903 62.3501 53.8396 62.7525 54.4497C64.7629 57.4978 68.8953 58.3381 71.9451 56.3266C74.9932 54.3162 75.8426 50.1901 73.8322 47.1421C73.0223 45.9141 71.8689 45.0547 70.5872 44.58L73.0572 24.9539C74.3157 24.959 75.5924 24.6092 76.7205 23.8651C79.7686 21.8547 80.6163 17.7224 78.6059 14.6743C76.5981 11.6282 72.4669 10.7822 69.4188 12.7926C66.3707 14.803 65.5184 18.9359 67.5266 21.9805ZM76.6734 15.9477C77.9961 17.953 77.4451 20.61 75.4449 21.9292C73.4447 23.2485 70.7854 22.7088 69.4628 20.7035C68.1436 18.7033 68.6923 16.0429 70.6925 14.7237C72.6927 13.4044 75.3542 13.9475 76.6734 15.9477ZM46.886 50.2127C48.2075 52.2163 47.6639 54.8733 45.6637 56.1925C43.6584 57.5152 41.002 56.9688 39.6805 54.9651C38.3613 52.9649 38.906 50.3096 40.9113 48.987C42.9115 47.6678 45.5668 48.2125 46.886 50.2127ZM35.3925 72.4939C36.7106 74.4924 36.167 77.1494 34.1668 78.4687C32.1632 79.7902 29.5068 79.2438 28.1887 77.2452C26.8666 75.2408 27.4079 72.5804 29.4116 71.2589C31.4118 69.9396 34.0704 70.4895 35.3925 72.4939ZM71.8988 48.416C73.2169 50.4145 72.67 53.0737 70.6697 54.393C68.6695 55.7122 66.008 55.1692 64.6899 53.1707C63.3687 51.1656 63.9151 48.5019 65.9145 47.1832C67.9147 45.8639 70.5768 46.4115 71.8988 48.416Z" fill="#D0D0D0"/>
</g>
<defs>
<clipPath id="clip0_8665_149">
<rect width="92" height="92" fill="white" transform="translate(0 50.6538) rotate(-33.4071)"/>
</clipPath>
</defs>
</svg>
