<svg width="235" height="23" viewBox="0 0 235 23" fill="none" xmlns="http://www.w3.org/2000/svg">
<g clip-path="url(#clip0_8527_3)">
<g clip-path="url(#clip1_8527_3)">
<g clip-path="url(#clip2_8527_3)">
<path opacity="0.827996" fill-rule="evenodd" clip-rule="evenodd" d="M234.422 13.3473C234.229 13.9792 231.601 15.2486 231.394 14.8259C231.282 14.5983 230.939 14.5349 230.621 14.6864C229.993 14.964 227.314 14.9604 224.823 14.6825C223.975 14.5754 221.541 14.4943 219.382 14.4838C217.223 14.4733 213.962 14.4296 212.059 14.3868C210.2 14.3711 208.234 14.3643 207.742 14.4073C207.08 14.4538 206.985 14.3418 207.341 13.9394C207.619 13.6236 207.419 13.6866 206.913 14.0709C206.395 14.4516 205.903 14.5776 205.819 14.3446C205.712 14.1459 205.373 14.0699 205.043 14.2177C204.724 14.3692 203.149 14.4403 201.51 14.3815C199.879 14.3388 198.032 14.3268 197.37 14.3733C196.736 14.4144 194.641 14.4509 192.766 14.4442C185.971 14.4396 180.04 14.5331 175.133 14.7465C172.392 14.862 169.86 14.9307 169.568 14.9107C169.253 14.8834 168.662 14.9101 168.288 14.9477C166.619 15.1561 156.263 15.6655 155.238 15.5872C154.608 15.5326 153.879 15.5863 153.596 15.7071C152.347 16.1956 147.691 16.2647 147.003 15.8056C146.189 15.294 145.841 13.8058 146.575 14.0302C146.824 14.1063 146.953 13.9799 146.876 13.6801C146.678 12.8042 156.975 11.558 157.929 12.3333C158.218 12.5737 158.399 12.5738 158.342 12.3354C158.225 11.8297 175.943 10.6138 176.34 11.0943C176.531 11.3184 176.787 11.3276 177.002 11.1309C177.343 10.8206 189.07 10.3156 196.101 10.3095C197.614 10.316 200.296 10.2239 202.072 10.1312C203.852 10.0258 205.727 10.0741 206.26 10.2369C206.804 10.4034 207.414 10.3551 207.649 10.1367C207.884 9.91839 208.298 9.92048 208.591 10.1482C208.88 10.3886 209.175 10.3545 209.26 10.0764C209.337 9.82367 209.629 9.8022 209.93 10.0462C210.219 10.2865 210.601 10.3482 210.781 10.1822C210.961 10.0162 212.273 9.96108 213.719 10.0578C215.157 10.1382 217.174 10.1883 218.222 10.1493C222.31 10.0311 225.781 10.2772 226.139 10.718C226.381 11.0269 226.455 10.953 226.338 10.4888C226.221 9.98311 226.351 9.93986 226.794 10.2688C227.126 10.5363 227.457 10.5961 227.515 10.4065C227.577 10.2043 228.289 10.0351 229.124 10.014C229.955 10.0055 231.457 10.2575 232.503 10.6049C234.173 11.1568 234.347 11.3483 234.057 12.2131C233.883 12.7402 233.921 13.1249 234.137 13.0528C234.389 12.9915 234.496 13.1072 234.422 13.3473ZM179.448 3.41801C180.826 3.20983 181.235 3.33479 180.727 3.79419C180.512 4.02153 179.906 4.07036 179.393 3.89894C178.512 3.6002 178.52 3.57342 179.448 3.41801ZM185.598 1.16503C185.814 1.23119 185.536 1.45354 184.936 1.69479C184.357 1.91295 183.855 1.9644 183.775 1.79377C183.625 1.46956 185.004 0.998341 185.598 1.16503ZM196.803 2.71322C197.031 2.78305 197.455 3.16133 197.725 3.52229C197.984 3.87957 198.027 4.12685 197.786 4.05335C197.57 3.9872 197.131 3.61863 196.86 3.25767C196.601 2.90039 196.574 2.64339 196.803 2.71322ZM201.562 3.04358C202.022 3.3452 202.563 3.4229 202.757 3.21867C202.979 3.00839 203.297 2.9152 203.549 2.99238C203.778 3.0622 203.579 3.36751 203.136 3.65654C202.121 4.26847 201.046 4.04245 200.871 3.15436C200.761 2.69627 200.97 2.65768 201.562 3.04358ZM168.298 4.39588C168.549 4.47245 168.575 4.68641 168.355 4.89391C168.15 5.0925 168.252 5.35711 168.598 5.46285C169.445 5.72172 170.069 5.08827 169.485 4.56638C169.237 4.35324 169.709 4.38765 170.52 4.63558C172.202 5.14968 173.122 5.25253 174.011 4.98864C174.367 4.89135 174.788 5.0064 175.017 5.28235C175.278 5.5818 175.356 5.53721 175.265 5.11091C175.054 4.22224 176.914 3.55464 177.402 4.34927C177.664 4.77273 178.457 4.82291 180.119 4.54801C182.56 4.11297 183.639 4.20931 183.868 4.91117C184.035 5.42946 185.564 5.33368 185.729 4.79348C185.798 4.56735 185.693 4.35664 185.443 4.28007C185.228 4.21444 185.188 3.79016 185.374 3.31115C185.614 2.6976 185.815 2.63558 186.093 3.09145C186.303 3.43021 186.382 3.8942 186.254 4.14343C185.701 5.14199 186.886 5.14716 187.736 4.15708L188.657 3.06488L189.146 4.36808C189.41 5.08088 189.695 5.42895 189.776 5.16513C189.86 4.88875 190.259 4.77727 190.689 4.90853C191.869 5.2695 192.265 4.82735 191.767 3.68583C191.199 2.38587 191.64 2.43811 192.294 3.75102C192.828 4.77948 194.769 5.51035 196.113 5.16578C196.607 5.04214 196.804 4.86868 196.533 4.77226C196.263 4.67583 196.045 4.27953 196.025 3.8751C196.005 3.38801 196.17 3.31505 196.582 3.63312C197.017 3.99983 197.159 3.91957 197.126 3.34616C197.106 2.9004 197.34 2.55998 197.704 2.52024C198.104 2.49143 198.187 2.81885 197.939 3.4162C197.335 4.87998 197.492 5.55995 198.41 5.37346C198.869 5.28022 200.105 5.2874 201.121 5.41942C202.153 5.54252 203.29 5.45043 203.644 5.1878C203.978 4.94665 204.533 4.92391 204.797 5.12813C205.06 5.33234 205.532 5.32542 205.779 5.11264C206.105 4.81395 206.288 4.85608 206.375 5.25361C206.47 5.62602 206.899 5.71594 207.801 5.53837C208.734 5.34296 209.159 5.44545 209.386 5.89929C209.632 6.373 209.755 6.39689 209.878 5.99488C209.967 5.70594 210.35 5.56205 210.731 5.67872C211.113 5.7954 212.818 5.89088 214.483 5.90532C216.139 5.90356 218.491 6.05936 219.626 6.22784C220.821 6.41455 221.736 6.32329 221.773 6.03232C221.805 5.71259 222.578 5.70158 223.742 5.98879C226.026 6.53606 228.602 6.85637 229.008 6.6371C229.166 6.54793 228.898 6.35628 228.433 6.21408C227.98 6.07553 227.395 5.47097 227.132 4.88218C226.751 3.99636 226.793 3.81684 227.395 3.76734C227.87 3.74785 227.935 3.91885 227.626 4.37397C227.262 4.83962 227.323 4.94052 227.805 4.81323C228.208 4.68919 228.316 4.76334 228.076 4.99232C226.992 5.97958 232.569 7.23127 234.138 6.36473C234.82 5.96875 234.861 5.74789 234.394 4.58854C234.032 3.63991 233.82 3.43771 233.658 3.92402C233.485 4.40667 233.382 4.40263 233.27 3.91514C233.159 3.55165 232.955 3.32432 232.766 3.43132C232.584 3.5132 231.763 3.46829 230.957 3.3318C230.175 3.2026 228.973 3.04101 228.366 2.97907C227.755 2.92968 226.477 2.80012 225.585 2.692C224.692 2.58388 223.347 2.50254 222.646 2.4941L221.346 2.48125L222.261 3.28314C222.849 3.79247 222.926 4.00845 222.469 3.88246C222.084 3.77835 221.615 3.30548 221.437 2.86622C221.229 2.30822 220.922 2.11819 220.531 2.28721C220.2 2.43313 218.967 2.41338 217.729 2.24086C216.49 2.06833 215.016 2.0709 214.384 2.26223C213.775 2.46085 212.939 2.46619 212.533 2.30089C211.136 1.70896 210.653 1.75358 210.811 2.43356C210.914 2.90484 210.835 2.86676 210.44 2.27919C210.074 1.68636 209.843 1.58832 209.505 1.88336C209.246 2.13382 208.878 2.1448 208.614 1.94058C208.067 1.51229 206.751 1.97559 206.118 2.81206C205.785 3.25989 205.725 3.20032 205.881 2.56125C206.034 1.97607 205.861 1.73091 205.335 1.78972C204.907 1.8238 204.217 1.73633 203.751 1.59413C203.286 1.45193 202.982 1.55124 203.032 1.81383C203.234 2.60363 202.026 2.71517 201.824 1.92538C201.693 1.45937 201.478 1.31107 201.175 1.53438C200.919 1.73095 200.162 1.77438 199.412 1.62734C198.673 1.48395 197.797 1.40825 197.393 1.44962C197.017 1.48572 196.346 1.37677 195.979 1.20985C195.052 0.788885 194.381 1.53175 194.776 2.54522C194.996 3.14819 194.908 3.47847 194.447 3.74962C193.962 4.01347 193.858 3.92676 194.023 3.38656C194.572 1.59009 191.701 1.42663 190.64 3.19032C190.091 4.13498 189.929 4.19538 189.53 3.53771C189.28 3.07657 189.238 2.48695 189.456 2.11411C189.722 1.67319 189.548 1.3867 188.869 1.17887C187.724 0.828848 187.237 1.73785 188.234 2.31725C188.688 2.5798 188.503 2.67424 187.642 2.58962C186.706 2.49569 186.49 2.34739 186.78 1.95509C187.022 1.63088 186.865 1.37681 186.337 1.27028C185.912 1.16779 185.343 1.32345 185.127 1.60106C184.873 1.96296 184.357 1.90141 183.489 1.41601C182.449 0.850796 182.243 0.842713 182.387 1.43637C182.528 2.0426 182.456 2.02072 182.01 1.34847C181.559 0.647449 181.369 0.671779 180.656 1.5115C180.189 2.05578 179.497 2.53078 179.108 2.56323C178.538 2.59489 178.533 2.52478 179.096 2.13368C179.671 1.74622 179.519 1.60359 178.065 1.2001C177.127 0.940831 176.29 0.863503 176.232 1.05195C176.174 1.24039 175.857 1.17071 175.521 0.903287C175.11 0.58521 174.956 0.620481 175.039 0.98924C175.22 1.71785 172.097 1.73838 170.933 1.02527C170.474 0.733943 166.576 0.558822 162.221 0.600949C137.805 0.870184 106.407 2.90608 76.0398 6.17745C70.4415 6.78743 64.4069 7.37394 62.5968 7.49365C57.7288 7.8049 48.0031 9.0762 47.8956 9.42795C47.8457 9.59127 47.446 9.66141 47.0171 9.57149C46.2108 9.39366 34.449 11.1826 33.2291 11.6751C32.858 11.8227 31.493 12.0647 30.1629 12.235C28.8248 12.3891 22.2144 13.665 15.4109 15.0605C2.24327 17.7796 0.707236 18.3677 0.774493 20.7923C0.816689 23.0855 2.67894 23.4351 7.97346 22.1552C10.4923 21.5516 16.3465 20.3605 21.0465 19.4896C25.7466 18.6188 29.5307 17.7151 29.4691 17.4902C29.4151 17.2402 29.7048 17.2738 30.1315 17.5416C30.5463 17.8058 31.7356 17.8398 32.7718 17.6071C33.8041 17.3869 35.6599 17.0751 36.9145 16.8955C41.3673 16.2787 43.3424 16.0034 47.209 15.4272C58.4847 13.7781 86.9078 10.6815 107.721 8.84393C124.488 7.36249 134.311 6.75295 151.72 6.07222C161.87 5.67255 167.554 5.25343 167.673 4.86398C167.769 4.54991 168.072 4.32661 168.298 4.39588Z" fill="#998EFF"/>
</g>
</g>
</g>
<defs>
<clipPath id="clip0_8527_3">
<rect width="235" height="23" fill="white"/>
</clipPath>
<clipPath id="clip1_8527_3">
<rect width="235" height="23" fill="white"/>
</clipPath>
<clipPath id="clip2_8527_3">
<rect width="235" height="23" fill="white"/>
</clipPath>
</defs>
</svg>
