<svg width="125" height="126" viewBox="0 0 125 126" fill="none" xmlns="http://www.w3.org/2000/svg">
<g clip-path="url(#clip0_8918_89)">
<path d="M88.7206 84.5629L78.1607 68.2881C78.0314 68.0915 77.8646 67.9223 77.67 67.7902C77.4753 67.6581 77.2565 67.5656 77.0261 67.5181C76.7956 67.4705 76.5581 67.4688 76.327 67.513C76.0959 67.5573 75.8758 67.6466 75.6793 67.7759C75.4827 67.9052 75.3135 68.072 75.1814 68.2666C75.0493 68.4613 74.9568 68.6801 74.9093 68.9105C74.8617 69.141 74.86 69.3785 74.9042 69.6096C74.9485 69.8407 75.0378 70.0608 75.1671 70.2573L83.9024 83.7186L51.8994 83.3737L33.7503 56.995L41.1345 56.8679C41.6029 56.8567 42.0479 56.6612 42.3731 56.3239C42.6982 55.9866 42.8772 55.5346 42.8711 55.0661C42.8669 54.8338 42.8169 54.6046 42.7241 54.3915C42.6312 54.1785 42.4973 53.9859 42.33 53.8246C42.1627 53.6633 41.9652 53.5366 41.7489 53.4517C41.5326 53.3667 41.3017 53.3252 41.0694 53.3295L30.418 53.5285L30.3555 53.4953C30.0699 53.5273 29.7963 53.6276 29.5577 53.7878C29.319 53.9479 29.1225 54.1631 28.9847 54.4153L12.1875 86.0062C11.9672 86.4205 11.9205 86.9053 12.0577 87.354C12.1949 87.8028 12.5047 88.1786 12.919 88.3989L64.2821 115.709C66.0362 116.7 68.1117 116.956 70.0537 116.419C71.9958 115.883 73.6461 114.599 74.6429 112.848L88.7584 86.3006C88.9032 86.0325 88.9757 85.7314 88.9691 85.4268C88.9625 85.1222 88.8768 84.8245 88.7206 84.5629ZM71.5092 111.205C71.2416 111.701 70.8587 112.126 70.3927 112.443L61.6 87.0088L84.2672 87.2102L71.5092 111.205ZM43.2784 77.0838L17.13 84.0541L30.619 58.6849L43.2784 77.0838ZM18.4627 87.3619L45.4078 80.1854L49.5098 86.1451C49.6713 86.3776 49.886 86.5682 50.1359 86.7011C50.3859 86.834 50.6639 86.9054 50.947 86.9092L57.798 86.9452L66.8293 112.964C66.5037 112.868 66.1887 112.739 65.8892 112.579L18.4627 87.3619Z" fill="#D0D0D0"/>
<path d="M74.2835 43.4518C74.7009 43.4065 75.1231 43.4439 75.526 43.5619C75.9289 43.6798 76.3046 43.8761 76.6317 44.1393C76.9633 44.4036 77.2394 44.7308 77.444 45.1023C77.6487 45.4737 77.7778 45.8819 77.824 46.3035C77.8702 46.725 77.8325 47.1515 77.7132 47.5584C77.5938 47.9654 77.3952 48.3446 77.1286 48.6745C76.8625 49.0071 76.5329 49.2835 76.159 49.4877C75.785 49.6918 75.3743 49.8196 74.9506 49.8636C74.4857 49.9178 74.0609 50.1529 73.7682 50.518C73.4754 50.8832 73.3383 51.3489 73.3866 51.8144C73.4181 52.1014 73.5198 52.3761 73.6826 52.6144C73.8454 52.8528 74.0644 53.0474 74.3202 53.1811C74.6347 53.3575 74.997 53.4299 75.3552 53.3879C77.1389 53.1945 78.7727 52.3004 79.8972 50.9024C81.0217 49.5044 81.5448 47.7169 81.3514 45.9332C81.158 44.1495 80.2639 42.5157 78.8659 41.3912C77.4678 40.2667 75.6804 39.7436 73.8967 39.9371C73.665 39.9642 73.4409 40.0367 73.2372 40.1505C73.0335 40.2643 72.8542 40.4171 72.7096 40.6001C72.5649 40.7832 72.4577 40.9929 72.3941 41.2174C72.3306 41.4419 72.3118 41.6767 72.339 41.9084C72.3661 42.1401 72.4387 42.3642 72.5524 42.5679C72.6662 42.7716 72.819 42.9509 73.002 43.0955C73.1851 43.2401 73.3948 43.3473 73.6193 43.4109C73.8438 43.4745 74.0786 43.4932 74.3103 43.4661L74.2835 43.4518Z" fill="#D0D0D0"/>
<path d="M43.4352 50.2591C43.6436 52.2287 44.5865 54.0475 46.076 55.353C47.5654 56.6585 49.4921 57.3548 51.472 57.3033L52.9967 71.3618C53.0672 72.0526 53.2749 72.7223 53.6075 73.3317C53.9402 73.9412 54.3912 74.4781 54.934 74.9109C55.1999 75.1214 55.4844 75.3071 55.7839 75.4659C56.8696 76.0434 58.1228 76.2236 59.3271 75.9755C60.5315 75.7274 61.6114 75.0665 62.3804 74.107C62.8162 73.5675 63.14 72.9466 63.333 72.2805C63.526 71.6143 63.5842 70.9164 63.5042 70.2275L62.1958 58.3679L77.2517 64.8733C77.8586 65.0287 78.488 65.0766 79.1115 65.0149C81.8592 64.7355 84.093 62.408 85.3676 58.288C86.555 54.0996 86.8848 49.7145 86.3373 45.3955C85.1832 34.7744 80.3435 27.2088 75.0924 27.7602C73.9511 27.9114 72.8847 28.4124 72.0398 29.1944L56.4348 40.4539L50.4357 41.077C49.3997 41.1886 48.3959 41.5034 47.4817 42.0034C46.5674 42.5033 45.7608 43.1786 45.1078 43.9906C44.4548 44.8027 43.9684 45.7355 43.6763 46.7357C43.3842 47.7359 43.2922 48.7839 43.4055 49.8197L43.4352 50.2591ZM59.9805 70.6096C60.0064 70.8371 59.9867 71.0674 59.9228 71.2872C59.8589 71.507 59.752 71.7119 59.6083 71.8901C59.4646 72.0683 59.2869 72.2161 59.0856 72.325C58.8843 72.434 58.6633 72.5019 58.4356 72.5247C58.2086 72.5486 57.9791 72.5264 57.7608 72.4595C57.5426 72.3927 57.3401 72.2825 57.1654 72.1356C56.9844 71.9925 56.834 71.8144 56.7233 71.6119C56.6126 71.4095 56.5438 71.1868 56.521 70.9572L54.9898 56.9753L58.1776 56.6436L58.4543 56.7907L59.9805 70.6096ZM75.4566 31.2745C75.8836 31.2436 76.3099 31.3426 76.6797 31.5584C79.0095 32.7971 81.9531 37.8775 82.8046 45.7729C83.3057 49.6022 83.0282 53.4934 81.9889 57.2129C81.1786 59.7706 79.9579 61.3772 78.7425 61.5096C76.4205 61.7635 72.4173 56.3717 71.4034 47.0159C70.3895 37.6602 73.0847 31.5361 75.4566 31.2745ZM68.3871 36.1718C67.6039 39.849 67.4389 43.6309 67.8987 47.3623C68.2519 51.1105 69.2255 54.7739 70.7795 58.203L60.1392 53.6218L58.9269 42.9812L68.3871 36.1718ZM47.8505 46.2405C48.212 45.7902 48.6591 45.4158 49.1659 45.139C49.6727 44.8621 50.2293 44.6883 50.8036 44.6275L55.5201 44.1125L56.5123 53.2506L51.7869 53.7609C50.6368 53.8768 49.4874 53.5352 48.5872 52.8102C47.6871 52.0851 47.1085 51.0348 46.9768 49.8865L46.8871 49.4953C46.8212 48.9159 46.8725 48.3292 47.038 47.77C47.2035 47.2108 47.4799 46.6907 47.8505 46.2405Z" fill="#D0D0D0"/>
<path d="M90.2559 39.7272L90.3898 39.7984C90.7778 40.0042 91.2284 40.0584 91.6541 39.9503C92.0798 39.8423 92.45 39.5798 92.6929 39.2139L97.4333 32.1506C97.6403 31.7655 97.6974 31.3175 97.5936 30.8928C97.4898 30.4681 97.2324 30.0969 96.8711 29.8507C96.5098 29.6045 96.0702 29.5009 95.637 29.5597C95.2037 29.6185 94.8076 29.8356 94.525 30.1692L89.7889 37.2462C89.6545 37.439 89.56 37.6567 89.5107 37.8865C89.4614 38.1163 89.4585 38.3537 89.5019 38.5847C89.5454 38.8156 89.6345 39.0356 89.7639 39.2318C89.8934 39.428 90.0606 39.5964 90.2559 39.7272Z" fill="#D0D0D0"/>
<path d="M92.9894 47.0546C93.3021 47.2319 93.6622 47.3073 94.0197 47.2704L103.386 46.3879C103.853 46.3451 104.285 46.1182 104.585 45.7572C104.886 45.3962 105.03 44.9306 104.987 44.4629C104.966 44.2314 104.9 44.0062 104.791 43.8004C104.683 43.5946 104.535 43.4121 104.357 43.2634C103.996 42.963 103.53 42.8183 103.062 42.8612L93.6828 43.7478C93.2166 43.792 92.7869 44.0192 92.488 44.3797C92.189 44.7401 92.0451 45.2044 92.0879 45.6707C92.1159 45.9569 92.2125 46.232 92.3694 46.4729C92.5264 46.7138 92.739 46.9134 92.9894 47.0546Z" fill="#D0D0D0"/>
<path d="M90.5804 51.8426C90.3005 52.2124 90.1771 52.6774 90.2366 53.1373C90.2962 53.5973 90.5339 54.0155 90.8987 54.3019L98.1589 60.0286C98.2463 60.0863 98.3389 60.1356 98.4357 60.1757C98.809 60.317 99.2191 60.3279 99.5994 60.2066C99.9797 60.0853 100.308 59.839 100.53 59.5077C100.753 59.1763 100.857 58.7794 100.826 58.3815C100.794 57.9836 100.629 57.608 100.357 57.3157L93.0969 51.5891C92.9155 51.4393 92.7062 51.327 92.4812 51.2587C92.2561 51.1904 92.0198 51.1673 91.7858 51.1909C91.5517 51.2145 91.3247 51.2842 91.1178 51.3961C90.911 51.5079 90.7283 51.6597 90.5804 51.8426Z" fill="#D0D0D0"/>
</g>
<defs>
<clipPath id="clip0_8918_89">
<rect width="92" height="92" fill="white" transform="translate(43.5752 0.788818) rotate(28)"/>
</clipPath>
</defs>
</svg>
