<svg width="40" height="41" viewBox="0 0 40 41" fill="none" xmlns="http://www.w3.org/2000/svg">
<path fill-rule="evenodd" clip-rule="evenodd" d="M6.66667 8.70801C5.7462 8.70801 5 9.45421 5 10.3747C5 11.2951 5.7462 12.0413 6.66667 12.0413H33.3333C34.2538 12.0413 35 11.2951 35 10.3747C35 9.45421 34.2538 8.70801 33.3333 8.70801H6.66667ZM15 20.3747C15 19.4542 15.7462 18.708 16.6667 18.708H33.3333C34.2538 18.708 35 19.4542 35 20.3747C35 21.2952 34.2538 22.0413 33.3333 22.0413H16.6667C15.7462 22.0413 15 21.2952 15 20.3747ZM5 30.3747C5 29.4542 5.7462 28.708 6.66667 28.708H33.3333C34.2538 28.708 35 29.4542 35 30.3747C35 31.2952 34.2538 32.0413 33.3333 32.0413H6.66667C5.7462 32.0413 5 31.2952 5 30.3747Z" fill="#0068FF"/>
</svg>
