<svg width="1920" height="1048" viewBox="0 0 1920 1048" fill="none" xmlns="http://www.w3.org/2000/svg">
<path d="M0 0H1920V998C1920 1025.61 1897.61 1048 1870 1048H50C22.3858 1048 0 1025.61 0 998V0Z" fill="white"/>
<path d="M0 0H1920V998C1920 1025.61 1897.61 1048 1870 1048H50C22.3858 1048 0 1025.61 0 998V0Z" fill="url(#paint0_linear_8985_6)"/>
<path d="M292.312 519.875H279.812C278.95 519.875 278.25 519.172 278.25 518.312V477.688C278.25 476.828 278.95 476.125 279.812 476.125C280.675 476.125 281.375 476.828 281.375 477.688V516.75H290.75V449.562C290.75 448.697 291.45 448 292.312 448C293.175 448 293.875 448.697 293.875 449.562V518.312C293.875 519.172 293.175 519.875 292.312 519.875Z" fill="#D0D0D0"/>
<path d="M265.75 516.75H256.375V508.938C256.375 508.075 255.675 507.375 254.812 507.375C253.95 507.375 253.25 508.075 253.25 508.938V518.312C253.25 519.172 253.95 519.875 254.812 519.875H267.312C268.175 519.875 268.875 519.172 268.875 518.312V496.438C268.875 495.575 268.175 494.875 267.312 494.875C266.45 494.875 265.75 495.575 265.75 496.438V516.75Z" fill="#D0D0D0"/>
<path d="M289.169 516.75H201.669C200.806 516.75 200.106 517.45 200.106 518.312C200.106 519.175 200.806 519.875 201.669 519.875H289.169C290.031 519.875 290.731 519.175 290.731 518.312C290.731 517.45 290.035 516.75 289.169 516.75Z" fill="#D0D0D0"/>
<path d="M229.812 508.938C228.95 508.938 228.25 508.234 228.25 507.375V474.562C228.25 473.697 228.95 473 229.812 473H242.312C243.175 473 243.875 473.697 243.875 474.562V499.562C243.875 500.422 243.175 501.125 242.312 501.125C241.45 501.125 240.75 500.422 240.75 499.562V476.125H231.375V507.375C231.375 508.234 230.675 508.938 229.812 508.938Z" fill="#D0D0D0"/>
<path d="M204.812 513.625C203.95 513.625 203.25 512.922 203.25 512.062V487.062C203.25 486.197 203.95 485.5 204.812 485.5H217.312C218.175 485.5 218.875 486.197 218.875 487.062V510.5C218.875 511.359 218.175 512.062 217.312 512.062C216.45 512.062 215.75 511.359 215.75 510.5V488.625H206.375V512.062C206.375 512.922 205.675 513.625 204.812 513.625Z" fill="#D0D0D0"/>
<path d="M254.812 485.5C253.95 485.5 253.25 484.803 253.25 483.938V462.062C253.25 461.197 253.95 460.5 254.812 460.5H261.062C261.925 460.5 262.625 461.197 262.625 462.062C262.625 462.922 261.925 463.625 261.062 463.625H256.375V483.938C256.375 484.803 255.675 485.5 254.812 485.5Z" fill="#D0D0D0"/>
<path d="M207.938 519.875C207.075 519.875 206.375 519.175 206.375 518.312C206.375 517.45 207.075 516.75 207.938 516.75C239.816 516.75 265.75 490.816 265.75 458.937V451.125H261.062C260.503 451.125 259.991 450.828 259.709 450.347C259.431 449.866 259.428 449.269 259.703 448.787L272.203 426.912C272.766 425.937 274.356 425.937 274.919 426.912L287.419 448.787C287.694 449.269 287.691 449.866 287.412 450.347C287.134 450.828 286.622 451.125 286.062 451.125H281.375V458.937C281.375 459.8 280.675 460.5 279.812 460.5C278.95 460.5 278.25 459.8 278.25 458.937V449.562C278.25 448.7 278.95 448 279.812 448H283.372L273.562 430.837L263.753 448H267.312C268.175 448 268.875 448.7 268.875 449.562V458.937C268.875 492.537 241.537 519.875 207.938 519.875Z" fill="#D0D0D0"/>
<path d="M279.812 466.75C280.675 466.75 281.375 466.05 281.375 465.188C281.375 464.325 280.675 463.625 279.812 463.625C278.95 463.625 278.25 464.325 278.25 465.188C278.25 466.05 278.95 466.75 279.812 466.75Z" fill="#D0D0D0"/>
<path opacity="0.1" d="M1768.48 688.738C1756.75 699.618 1744.17 709.538 1731.65 719.488C1731.52 719.588 1731.43 719.708 1731.36 719.818C1730.57 719.418 1729.59 719.228 1728.4 719.318C1728.23 719.288 1728.04 719.308 1727.85 719.378C1727.55 719.438 1727.33 719.578 1727.2 719.758C1726.08 720.508 1724.99 721.518 1724.13 722.698C1714.65 722.758 1705.09 723.378 1695.68 722.018C1695.34 721.968 1695.04 722.048 1694.8 722.198C1694.73 719.178 1693.03 716.578 1689.27 716.878C1689.1 716.848 1688.91 716.868 1688.72 716.938C1688.42 716.998 1688.2 717.138 1688.07 717.318C1684.72 719.548 1681.69 724.218 1683.91 728.118C1685.62 731.118 1689.43 731.238 1691.83 729.208C1693.25 727.998 1694.21 726.178 1694.6 724.288C1694.72 724.348 1694.85 724.408 1695.01 724.428C1704.21 725.758 1713.49 725.308 1722.75 725.208C1722.11 726.958 1722.05 728.828 1723.04 730.558C1724.75 733.558 1728.56 733.678 1730.96 731.648C1733.82 729.228 1734.81 724.288 1733.08 721.438C1733.19 721.388 1733.3 721.338 1733.41 721.248C1745.33 711.778 1757.3 702.308 1768.55 692.038C1768.24 693.138 1767.88 694.208 1767.4 694.808C1766.4 696.058 1768.16 697.838 1769.17 696.578C1771.57 693.588 1771.37 688.978 1773.25 685.688C1773.52 685.358 1773.55 684.978 1773.43 684.648C1773.42 684.618 1773.41 684.588 1773.4 684.568C1773.39 684.548 1773.38 684.528 1773.37 684.508C1773.03 683.788 1771.96 683.418 1771.32 684.088C1770.17 685.128 1768.46 685.718 1767.03 686.258C1765.57 686.818 1763.41 687.728 1761.82 687.328C1760.26 686.938 1759.59 689.348 1761.16 689.738C1763.14 690.238 1765.35 689.478 1767.21 688.848C1768.04 688.568 1768.9 688.258 1769.75 687.888C1769.7 688.068 1769.64 688.248 1769.59 688.418C1769.23 688.338 1768.83 688.408 1768.48 688.738ZM1690.66 726.818C1689.5 728.248 1687.98 728.558 1686.51 727.358C1683.72 725.078 1687.43 720.718 1689.56 719.328C1693.85 718.848 1692.28 724.828 1690.66 726.818ZM1729.8 729.258C1728.64 730.688 1727.12 730.998 1725.65 729.798C1722.86 727.518 1726.57 723.158 1728.7 721.768C1732.98 721.278 1731.42 727.258 1729.8 729.258Z" fill="#231F20"/>
<path opacity="0.1" d="M1729.49 741.468C1729.49 740.518 1729.49 739.558 1729.49 738.608C1729.49 736.998 1726.99 736.998 1726.99 738.608C1726.99 739.558 1726.99 740.518 1726.99 741.468C1726.99 743.078 1729.49 743.078 1729.49 741.468Z" fill="#231F20"/>
<path opacity="0.1" d="M1727.03 749.658C1727.52 751.188 1729.94 750.538 1729.44 748.998C1729.39 748.848 1729.35 748.698 1729.3 748.538C1729.28 748.468 1729.27 748.388 1729.25 748.318C1729.25 748.308 1729.25 748.278 1729.25 748.248C1730.61 747.458 1729.36 745.338 1727.96 746.108C1726.61 746.858 1726.61 748.358 1727.03 749.658Z" fill="#231F20"/>
<path opacity="0.1" d="M1730.21 757.908C1730.21 757.078 1730.21 756.238 1730.21 755.408C1730.21 753.798 1727.71 753.798 1727.71 755.408C1727.71 756.238 1727.71 757.078 1727.71 757.908C1727.71 759.528 1730.21 759.528 1730.21 757.908Z" fill="#231F20"/>
<path opacity="0.1" d="M1690.52 738.958C1690.52 738.008 1690.52 737.048 1690.52 736.098C1690.52 734.488 1688.02 734.488 1688.02 736.098C1688.02 737.048 1688.02 738.008 1688.02 738.958C1688.02 740.568 1690.52 740.568 1690.52 738.958Z" fill="#231F20"/>
<path opacity="0.1" d="M1688.19 751.038C1688.47 751.658 1689.36 751.808 1689.9 751.488C1690.53 751.118 1690.63 750.398 1690.35 749.778C1690.06 749.128 1690.16 748.238 1690.16 747.548C1690.16 745.938 1687.66 745.938 1687.66 747.548C1687.66 748.748 1687.68 749.918 1688.19 751.038Z" fill="#231F20"/>
<path opacity="0.1" d="M1690.87 759.888C1690.42 759.398 1690.52 758.528 1690.52 757.908C1690.52 756.298 1688.02 756.298 1688.02 757.908C1688.02 759.278 1688.13 760.598 1689.1 761.648C1690.19 762.848 1691.95 761.078 1690.87 759.888Z" fill="#231F20"/>
<path opacity="0.1" d="M1784.26 694.058C1785.14 695.398 1787.3 694.148 1786.42 692.798C1783.94 689.008 1783.7 684.048 1782.16 679.868C1781.94 679.268 1781.42 679.018 1780.91 679.018C1780.23 678.908 1779.39 679.298 1779.3 680.198C1778.87 684.638 1777.17 688.788 1776.13 693.098C1775.75 694.668 1778.16 695.328 1778.54 693.758C1779.27 690.748 1780.26 687.818 1780.98 684.818C1781.29 686.098 1781.6 687.388 1781.96 688.658C1781.25 688.128 1779.93 688.448 1779.9 689.618C1779.35 712.428 1781.11 735.218 1781.22 758.028C1772 757.478 1762.9 758.388 1753.67 758.808C1741.26 759.368 1728.85 759.918 1716.44 760.558C1693.04 761.768 1669.65 763.378 1646.38 766.078C1646.42 766.038 1646.47 765.998 1646.51 765.958C1657.96 752.918 1672.67 743.148 1683.18 729.238C1684.15 727.948 1681.98 726.708 1681.02 727.978C1670.65 741.698 1656.04 751.328 1644.74 764.198C1644.09 764.928 1644.5 765.878 1645.15 766.228C1644.83 766.268 1644.51 766.298 1644.19 766.338C1642.61 766.528 1642.59 769.028 1644.19 768.838C1668.19 765.988 1692.3 764.338 1716.44 763.068C1728.2 762.448 1739.96 761.938 1751.72 761.408C1762 760.948 1772.19 759.838 1782.48 760.608C1783.06 760.648 1783.42 760.358 1783.58 759.958C1783.67 759.788 1783.73 759.598 1783.73 759.358C1783.68 736.258 1781.86 713.178 1782.39 690.078C1782.88 691.468 1783.45 692.818 1784.26 694.058Z" fill="#231F20"/>
<g clip-path="url(#clip0_8985_6)">
<path d="M1664.24 269.538C1664.12 269.371 1663.96 269.232 1663.78 269.127C1663.6 269.022 1663.4 268.954 1663.2 268.927C1662.99 268.9 1662.78 268.914 1662.58 268.968C1662.38 269.023 1662.19 269.117 1662.03 269.245C1661.87 269.373 1661.73 269.533 1661.63 269.714C1661.53 269.895 1661.46 270.095 1661.44 270.302C1661.42 270.508 1661.44 270.717 1661.49 270.917C1661.55 271.116 1661.65 271.302 1661.78 271.463C1664.37 274.751 1665.77 278.817 1665.75 283C1665.75 287.164 1664.36 291.208 1661.81 294.497C1659.26 297.785 1655.68 300.13 1651.65 301.162C1647.61 302.194 1643.35 301.854 1639.53 300.196C1635.71 298.538 1632.55 295.655 1630.55 292.004C1628.55 288.352 1627.83 284.138 1628.49 280.027C1629.15 275.917 1631.16 272.142 1634.2 269.299C1637.24 266.456 1641.14 264.706 1645.29 264.326C1649.43 263.945 1653.59 264.955 1657.1 267.197C1657.44 267.42 1657.87 267.496 1658.27 267.407C1658.68 267.318 1659.03 267.071 1659.25 266.722C1659.48 266.373 1659.55 265.949 1659.46 265.544C1659.38 265.139 1659.13 264.786 1658.78 264.563C1654.16 261.611 1648.6 260.502 1643.2 261.455C1637.79 262.408 1632.95 265.353 1629.62 269.709C1626.28 274.064 1624.71 279.512 1625.2 284.974C1625.69 290.436 1628.21 295.515 1632.27 299.205C1636.33 302.894 1641.62 304.927 1647.11 304.9C1652.59 304.872 1657.87 302.787 1661.89 299.057C1665.91 295.327 1668.38 290.224 1668.82 284.757C1669.26 279.29 1667.62 273.858 1664.25 269.536L1664.24 269.538Z" fill="#D0D0D0"/>
<path d="M1670.82 300.188C1670.56 299.928 1670.41 299.588 1670.38 299.226C1670.34 298.864 1670.44 298.502 1670.64 298.202C1672.31 295.619 1673.54 292.778 1674.28 289.794L1678.31 291.806C1678.29 291.995 1678.25 292.18 1678.25 292.373C1678.25 293.874 1678.78 295.326 1679.75 296.466C1680.73 297.606 1682.08 298.359 1683.56 298.588C1685.05 298.816 1686.56 298.506 1687.83 297.712C1689.11 296.919 1690.05 295.695 1690.5 294.263C1690.95 292.831 1690.87 291.286 1690.27 289.909C1689.68 288.531 1688.61 287.413 1687.26 286.756C1685.91 286.099 1684.37 285.948 1682.92 286.33C1681.47 286.711 1680.21 287.6 1679.36 288.836L1674.89 286.602C1675.18 284.298 1675.2 281.968 1674.93 279.661C1674.43 275.439 1672.95 271.39 1670.63 267.83L1674.17 264.287C1676.99 266.538 1680.55 267.624 1684.15 267.325C1687.74 267.025 1691.08 265.361 1693.48 262.676C1695.88 259.99 1697.17 256.486 1697.07 252.884C1696.97 249.281 1695.49 245.854 1692.94 243.306C1690.39 240.758 1686.97 239.282 1683.36 239.182C1679.76 239.082 1676.26 240.365 1673.57 242.768C1670.89 245.171 1669.22 248.511 1668.92 252.102C1668.62 255.694 1669.71 259.263 1671.96 262.078L1668.77 265.267C1664.25 259.677 1657.75 256.037 1650.62 255.1C1649.93 255.014 1649.25 254.962 1648.56 254.925V251.528C1650.04 251.148 1651.32 250.243 1652.17 248.984C1653.03 247.725 1653.39 246.198 1653.2 244.689C1653.01 243.18 1652.27 241.793 1651.13 240.787C1649.99 239.781 1648.52 239.227 1647 239.227C1645.48 239.227 1644.01 239.781 1642.87 240.787C1641.73 241.793 1640.99 243.18 1640.8 244.689C1640.61 246.198 1640.97 247.725 1641.83 248.984C1642.68 250.243 1643.96 251.148 1645.44 251.528V254.927C1639.06 255.266 1633 257.775 1628.25 262.039L1622.04 255.83C1624.29 253.015 1625.38 249.445 1625.08 245.854C1624.78 242.263 1623.11 238.923 1620.43 236.52C1617.74 234.117 1614.24 232.834 1610.64 232.934C1607.03 233.034 1603.61 234.509 1601.06 237.058C1598.51 239.606 1597.04 243.033 1596.94 246.635C1596.84 250.238 1598.12 253.742 1600.52 256.427C1602.92 259.113 1606.26 260.776 1609.86 261.076C1613.45 261.376 1617.02 260.289 1619.83 258.039L1626.04 264.25C1621.78 269 1619.27 275.064 1618.93 281.437H1615.53C1615.15 279.965 1614.24 278.681 1612.98 277.827C1611.73 276.973 1610.2 276.608 1608.69 276.8C1607.18 276.991 1605.79 277.727 1604.79 278.868C1603.78 280.01 1603.23 281.479 1603.23 283C1603.23 284.521 1603.78 285.99 1604.79 287.132C1605.79 288.273 1607.18 289.009 1608.69 289.2C1610.2 289.392 1611.73 289.027 1612.98 288.173C1614.24 287.319 1615.15 286.035 1615.53 284.562H1618.93C1618.96 285.247 1619.02 285.933 1619.1 286.62C1619.73 291.497 1621.65 296.118 1624.66 300.008L1619.83 304.836C1617.01 302.586 1613.44 301.499 1609.85 301.799C1606.26 302.099 1602.92 303.762 1600.52 306.448C1598.12 309.133 1596.83 312.637 1596.93 316.24C1597.03 319.842 1598.51 323.269 1601.06 325.817C1603.6 328.366 1607.03 329.841 1610.63 329.941C1614.24 330.041 1617.74 328.758 1620.43 326.355C1623.11 323.952 1624.78 320.612 1625.07 317.021C1625.37 313.43 1624.29 309.86 1622.04 307.045L1626.7 302.386C1631.18 307.121 1637.18 310.143 1643.66 310.93C1645.4 311.131 1647.14 311.173 1648.89 311.056L1649.93 315.225C1648.66 316.031 1647.73 317.266 1647.31 318.703C1646.88 320.141 1646.99 321.684 1647.61 323.05C1648.23 324.415 1649.32 325.51 1650.68 326.135C1652.04 326.759 1653.59 326.87 1655.03 326.448C1656.47 326.026 1657.7 325.098 1658.51 323.836C1659.32 322.574 1659.65 321.062 1659.43 319.578C1659.22 318.094 1658.47 316.738 1657.34 315.759C1656.2 314.78 1654.75 314.244 1653.25 314.25C1653.14 314.25 1653.03 314.278 1652.92 314.284L1652.01 310.661C1655.64 310.01 1659.11 308.643 1662.2 306.641C1662.5 306.437 1662.87 306.343 1663.23 306.376C1663.59 306.408 1663.93 306.565 1664.19 306.819L1689 331.627C1689.43 332.062 1689.95 332.408 1690.52 332.644C1691.09 332.879 1691.7 333 1692.31 333C1692.44 333 1692.57 333 1692.69 332.984C1693.37 332.928 1694.03 332.725 1694.63 332.388C1695.22 332.051 1695.73 331.588 1696.13 331.033C1696.76 330.097 1697.05 328.968 1696.94 327.843C1696.82 326.718 1696.31 325.669 1695.5 324.88L1670.82 300.188ZM1684.5 289.25C1685.12 289.25 1685.72 289.433 1686.24 289.777C1686.75 290.12 1687.15 290.608 1687.39 291.179C1687.62 291.75 1687.69 292.378 1687.57 292.985C1687.44 293.591 1687.15 294.148 1686.71 294.585C1686.27 295.022 1685.72 295.319 1685.11 295.44C1684.5 295.561 1683.88 295.499 1683.3 295.262C1682.73 295.026 1682.25 294.625 1681.9 294.111C1681.56 293.597 1681.38 292.993 1681.38 292.375C1681.38 291.546 1681.7 290.751 1682.29 290.165C1682.88 289.579 1683.67 289.25 1684.5 289.25ZM1682.94 242.375C1685.1 242.375 1687.22 243.016 1689.01 244.218C1690.81 245.42 1692.21 247.128 1693.04 249.127C1693.87 251.125 1694.09 253.325 1693.66 255.446C1693.24 257.568 1692.2 259.517 1690.67 261.046C1689.14 262.576 1687.19 263.618 1685.07 264.04C1682.95 264.462 1680.75 264.245 1678.75 263.417C1676.75 262.59 1675.05 261.188 1673.84 259.389C1672.64 257.59 1672 255.476 1672 253.312C1672 250.413 1673.16 247.633 1675.21 245.582C1677.26 243.532 1680.04 242.378 1682.94 242.375ZM1611.06 326.75C1608.9 326.75 1606.78 326.109 1604.99 324.907C1603.19 323.705 1601.79 321.997 1600.96 319.998C1600.13 318 1599.91 315.8 1600.34 313.679C1600.76 311.557 1601.8 309.608 1603.33 308.079C1604.86 306.549 1606.81 305.507 1608.93 305.085C1611.05 304.663 1613.25 304.88 1615.25 305.708C1617.25 306.535 1618.95 307.937 1620.16 309.736C1621.36 311.535 1622 313.649 1622 315.812C1622 318.712 1620.84 321.492 1618.79 323.543C1616.74 325.593 1613.96 326.747 1611.06 326.75ZM1656.38 320.5C1656.38 321.118 1656.19 321.722 1655.85 322.236C1655.51 322.75 1655.02 323.151 1654.45 323.387C1653.87 323.624 1653.25 323.686 1652.64 323.565C1652.03 323.444 1651.48 323.147 1651.04 322.71C1650.6 322.273 1650.31 321.716 1650.19 321.11C1650.06 320.503 1650.13 319.875 1650.36 319.304C1650.6 318.733 1651 318.245 1651.51 317.902C1652.03 317.558 1652.63 317.375 1653.25 317.375C1654.08 317.375 1654.87 317.704 1655.46 318.29C1656.05 318.876 1656.38 319.671 1656.38 320.5ZM1643.88 245.5C1643.88 244.882 1644.06 244.278 1644.4 243.764C1644.75 243.25 1645.23 242.849 1645.8 242.613C1646.38 242.376 1647 242.314 1647.61 242.435C1648.22 242.556 1648.77 242.853 1649.21 243.29C1649.65 243.727 1649.94 244.284 1650.07 244.89C1650.19 245.497 1650.12 246.125 1649.89 246.696C1649.65 247.267 1649.25 247.755 1648.74 248.098C1648.22 248.442 1647.62 248.625 1647 248.625C1646.17 248.625 1645.38 248.296 1644.79 247.71C1644.2 247.124 1643.88 246.329 1643.88 245.5ZM1611.06 258C1608.9 258 1606.78 257.359 1604.99 256.157C1603.19 254.955 1601.79 253.247 1600.96 251.248C1600.13 249.25 1599.91 247.05 1600.34 244.929C1600.76 242.807 1601.8 240.858 1603.33 239.329C1604.86 237.799 1606.81 236.757 1608.93 236.335C1611.05 235.913 1613.25 236.13 1615.25 236.958C1617.25 237.785 1618.95 239.187 1620.16 240.986C1621.36 242.785 1622 244.899 1622 247.062C1622 249.962 1620.84 252.742 1618.79 254.793C1616.74 256.843 1613.96 257.997 1611.06 258ZM1609.5 286.125C1608.88 286.125 1608.28 285.942 1607.76 285.598C1607.25 285.255 1606.85 284.767 1606.61 284.196C1606.38 283.625 1606.31 282.997 1606.44 282.39C1606.56 281.784 1606.85 281.227 1607.29 280.79C1607.73 280.353 1608.28 280.056 1608.89 279.935C1609.5 279.814 1610.12 279.876 1610.7 280.113C1611.27 280.349 1611.76 280.75 1612.1 281.264C1612.44 281.778 1612.63 282.382 1612.63 283C1612.63 283.829 1612.3 284.624 1611.71 285.21C1611.12 285.796 1610.33 286.125 1609.5 286.125ZM1693.6 329.208C1693.46 329.396 1693.29 329.554 1693.09 329.668C1692.89 329.783 1692.67 329.852 1692.44 329.87C1692.21 329.891 1691.99 329.861 1691.77 329.782C1691.56 329.704 1691.37 329.579 1691.21 329.417L1666.4 304.609C1665.97 304.175 1665.46 303.831 1664.89 303.596C1664.33 303.361 1663.72 303.24 1663.11 303.241C1662.18 303.245 1661.28 303.516 1660.51 304.022C1655.63 307.183 1649.8 308.529 1644.03 307.827C1639.37 307.269 1634.97 305.412 1631.31 302.468C1627.66 299.524 1624.91 295.612 1623.38 291.178C1621.84 286.745 1621.59 281.97 1622.64 277.398C1623.69 272.827 1626.01 268.643 1629.33 265.326C1632.64 262.009 1636.83 259.692 1641.4 258.64C1645.97 257.589 1650.75 257.844 1655.18 259.378C1659.61 260.912 1663.52 263.662 1666.47 267.314C1669.41 270.967 1671.27 275.373 1671.83 280.031C1672.53 285.801 1671.18 291.634 1668.02 296.509C1667.42 297.409 1667.15 298.487 1667.26 299.561C1667.37 300.634 1667.85 301.637 1668.61 302.4L1693.3 327.088C1693.58 327.352 1693.77 327.708 1693.82 328.095C1693.88 328.481 1693.8 328.874 1693.6 329.208Z" fill="#D0D0D0"/>
<path d="M1634.5 289.25V292.041C1634.5 292.932 1634.76 293.804 1635.24 294.556C1635.71 295.309 1636.39 295.912 1637.2 296.297C1640.24 297.826 1643.6 298.622 1647 298.622C1650.4 298.622 1653.76 297.826 1656.8 296.297C1657.6 295.913 1658.28 295.31 1658.76 294.557C1659.24 293.804 1659.5 292.932 1659.5 292.041V289.25C1659.5 286.768 1658.75 284.343 1657.37 282.284C1655.98 280.226 1654.01 278.625 1651.72 277.688C1652.7 276.563 1653.25 275.12 1653.25 273.625C1653.25 271.967 1652.59 270.378 1651.42 269.206C1650.25 268.033 1648.66 267.375 1647 267.375C1645.34 267.375 1643.75 268.033 1642.58 269.206C1641.41 270.378 1640.75 271.967 1640.75 273.625C1640.75 275.12 1641.3 276.563 1642.28 277.688C1639.99 278.625 1638.02 280.226 1636.63 282.284C1635.25 284.343 1634.5 286.768 1634.5 289.25ZM1643.88 273.625C1643.88 273.007 1644.06 272.403 1644.4 271.889C1644.75 271.375 1645.23 270.974 1645.8 270.738C1646.38 270.501 1647 270.439 1647.61 270.56C1648.22 270.681 1648.77 270.978 1649.21 271.415C1649.65 271.852 1649.94 272.409 1650.06 273.015C1650.19 273.622 1650.12 274.25 1649.89 274.821C1649.65 275.392 1649.25 275.88 1648.74 276.223C1648.22 276.567 1647.62 276.75 1647 276.75C1646.17 276.75 1645.38 276.421 1644.79 275.835C1644.2 275.249 1643.88 274.454 1643.88 273.625ZM1647 279.875C1649.49 279.877 1651.87 280.866 1653.63 282.624C1655.38 284.381 1656.37 286.764 1656.38 289.25V292.041C1656.37 292.342 1656.28 292.636 1656.12 292.89C1655.96 293.143 1655.73 293.346 1655.46 293.475C1652.84 294.813 1649.94 295.511 1647 295.511C1644.06 295.511 1641.16 294.813 1638.54 293.475C1638.27 293.346 1638.04 293.143 1637.88 292.89C1637.72 292.636 1637.63 292.342 1637.62 292.041V289.25C1637.63 286.764 1638.62 284.381 1640.37 282.624C1642.13 280.866 1644.51 279.877 1647 279.875Z" fill="#D0D0D0"/>
<path d="M1677.68 261.701C1681.06 263.013 1684.81 263.013 1688.19 261.701C1688.94 261.415 1689.59 260.908 1690.05 260.247C1690.5 259.587 1690.75 258.803 1690.75 258C1690.75 256.629 1690.38 255.283 1689.69 254.1C1689 252.916 1688 251.935 1686.81 251.258C1687.29 250.553 1687.57 249.731 1687.62 248.88C1687.67 248.029 1687.48 247.182 1687.08 246.428C1686.68 245.675 1686.09 245.044 1685.36 244.605C1684.63 244.165 1683.79 243.933 1682.94 243.933C1682.09 243.933 1681.25 244.165 1680.52 244.605C1679.79 245.044 1679.19 245.675 1678.79 246.428C1678.4 247.182 1678.21 248.029 1678.26 248.88C1678.3 249.731 1678.58 250.553 1679.06 251.258C1677.87 251.935 1676.88 252.916 1676.19 254.1C1675.5 255.283 1675.13 256.629 1675.12 258C1675.13 258.803 1675.37 259.587 1675.83 260.247C1676.28 260.908 1676.93 261.415 1677.68 261.701ZM1681.38 248.625C1681.38 248.316 1681.47 248.014 1681.64 247.757C1681.81 247.5 1682.05 247.3 1682.34 247.181C1682.63 247.063 1682.94 247.032 1683.24 247.092C1683.55 247.153 1683.82 247.302 1684.04 247.52C1684.26 247.739 1684.41 248.017 1684.47 248.32C1684.53 248.623 1684.5 248.937 1684.38 249.223C1684.26 249.508 1684.06 249.752 1683.81 249.924C1683.55 250.096 1683.25 250.187 1682.94 250.187C1682.52 250.187 1682.13 250.023 1681.83 249.73C1681.54 249.437 1681.38 249.039 1681.38 248.625ZM1682.94 253.312C1684.18 253.312 1685.37 253.806 1686.25 254.685C1687.13 255.564 1687.62 256.757 1687.62 258C1687.63 258.169 1687.58 258.334 1687.48 258.473C1687.39 258.613 1687.25 258.72 1687.09 258.781C1684.42 259.834 1681.45 259.834 1678.78 258.781C1678.63 258.721 1678.49 258.613 1678.39 258.474C1678.3 258.334 1678.25 258.169 1678.25 258C1678.25 256.757 1678.74 255.564 1679.62 254.685C1680.5 253.806 1681.69 253.312 1682.94 253.312Z" fill="#D0D0D0"/>
<path d="M1614.94 313.758C1615.42 313.053 1615.7 312.231 1615.74 311.38C1615.79 310.529 1615.6 309.682 1615.21 308.928C1614.81 308.175 1614.21 307.544 1613.48 307.105C1612.75 306.665 1611.91 306.433 1611.06 306.433C1610.21 306.433 1609.37 306.665 1608.64 307.105C1607.91 307.544 1607.32 308.175 1606.92 308.928C1606.52 309.682 1606.33 310.529 1606.38 311.38C1606.43 312.231 1606.71 313.053 1607.19 313.758C1606 314.435 1605 315.416 1604.31 316.6C1603.62 317.783 1603.25 319.129 1603.25 320.5C1603.25 321.303 1603.5 322.087 1603.95 322.747C1604.41 323.408 1605.06 323.915 1605.81 324.201C1609.19 325.513 1612.94 325.513 1616.32 324.201C1617.07 323.915 1617.72 323.408 1618.17 322.747C1618.63 322.087 1618.87 321.303 1618.88 320.5C1618.87 319.129 1618.5 317.783 1617.81 316.6C1617.12 315.416 1616.13 314.435 1614.94 313.758ZM1609.5 311.125C1609.5 310.816 1609.59 310.514 1609.76 310.257C1609.94 310 1610.18 309.8 1610.46 309.681C1610.75 309.563 1611.06 309.532 1611.37 309.592C1611.67 309.653 1611.95 309.802 1612.17 310.02C1612.39 310.239 1612.53 310.517 1612.59 310.82C1612.66 311.123 1612.62 311.437 1612.51 311.723C1612.39 312.008 1612.19 312.252 1611.93 312.424C1611.67 312.596 1611.37 312.687 1611.06 312.687C1610.65 312.687 1610.25 312.523 1609.96 312.23C1609.66 311.937 1609.5 311.539 1609.5 311.125ZM1615.22 321.281C1612.55 322.334 1609.58 322.334 1606.91 321.281C1606.75 321.221 1606.61 321.113 1606.52 320.974C1606.42 320.834 1606.37 320.669 1606.38 320.5C1606.38 319.257 1606.87 318.064 1607.75 317.185C1608.63 316.306 1609.82 315.812 1611.06 315.812C1612.31 315.812 1613.5 316.306 1614.38 317.185C1615.26 318.064 1615.75 319.257 1615.75 320.5C1615.75 320.669 1615.7 320.834 1615.61 320.973C1615.51 321.113 1615.38 321.22 1615.22 321.281Z" fill="#D0D0D0"/>
<path d="M1614.94 245.008C1615.42 244.303 1615.7 243.481 1615.74 242.63C1615.79 241.779 1615.6 240.932 1615.21 240.178C1614.81 239.425 1614.21 238.794 1613.48 238.355C1612.75 237.915 1611.91 237.683 1611.06 237.683C1610.21 237.683 1609.37 237.915 1608.64 238.355C1607.91 238.794 1607.32 239.425 1606.92 240.178C1606.52 240.932 1606.33 241.779 1606.38 242.63C1606.43 243.481 1606.71 244.303 1607.19 245.008C1606 245.685 1605 246.666 1604.31 247.85C1603.62 249.033 1603.25 250.379 1603.25 251.75C1603.25 252.553 1603.5 253.337 1603.95 253.997C1604.41 254.658 1605.06 255.165 1605.81 255.451C1609.19 256.763 1612.94 256.763 1616.32 255.451C1617.07 255.165 1617.72 254.658 1618.17 253.997C1618.63 253.337 1618.87 252.553 1618.88 251.75C1618.87 250.379 1618.5 249.033 1617.81 247.85C1617.12 246.666 1616.13 245.685 1614.94 245.008ZM1609.5 242.375C1609.5 242.066 1609.59 241.764 1609.76 241.507C1609.94 241.25 1610.18 241.05 1610.46 240.931C1610.75 240.813 1611.06 240.782 1611.37 240.842C1611.67 240.903 1611.95 241.052 1612.17 241.27C1612.39 241.489 1612.53 241.767 1612.59 242.07C1612.66 242.373 1612.62 242.687 1612.51 242.973C1612.39 243.258 1612.19 243.502 1611.93 243.674C1611.67 243.846 1611.37 243.937 1611.06 243.937C1610.65 243.937 1610.25 243.773 1609.96 243.48C1609.66 243.187 1609.5 242.789 1609.5 242.375ZM1615.22 252.531C1612.55 253.584 1609.58 253.584 1606.91 252.531C1606.75 252.471 1606.61 252.363 1606.52 252.224C1606.42 252.084 1606.37 251.919 1606.38 251.75C1606.38 250.507 1606.87 249.314 1607.75 248.435C1608.63 247.556 1609.82 247.062 1611.06 247.062C1612.31 247.062 1613.5 247.556 1614.38 248.435C1615.26 249.314 1615.75 250.507 1615.75 251.75C1615.75 251.919 1615.7 252.084 1615.61 252.223C1615.51 252.363 1615.38 252.47 1615.22 252.531Z" fill="#D0D0D0"/>
</g>
<path opacity="0.2" d="M745.671 448.627C749.798 449.392 754.634 448.938 758.824 449.705C746.962 460.669 731.345 468.872 714.756 465.602C705.739 463.827 697.68 458.148 693.324 450.601C701.892 447.671 710.628 442.857 715.134 435.326C719.63 427.791 718.01 416.192 708.759 413.258C698.19 409.91 688.575 419.941 685.724 429.17C683.929 434.971 683.986 441.217 685.622 447.026C671.468 450.414 655.973 448.095 645.22 437.425C644.265 436.474 643.382 435.476 642.551 434.422C652.404 432.782 662.905 428.788 667.98 419.644C672.519 411.462 671.464 400.911 663.09 395.722C656.025 391.34 645.971 391.931 639.455 397.095C631.541 403.375 629.522 414.727 631.75 424.13C632.268 426.316 632.968 428.389 633.841 430.346C620.006 430.978 605.594 427.102 594.883 418.545C592.677 416.777 590.667 414.773 588.944 412.579C591.311 412.569 593.684 412.378 596.061 411.975C605.977 410.284 615.426 404.436 618.193 394.245C620.624 385.274 616.305 376.447 607.599 373.121C587.119 365.306 573.748 388.361 579.947 405.988C580.172 406.608 580.413 407.213 580.663 407.821C565.9 405.235 552.647 395.092 546.102 381.591C545.375 380.096 543.06 381.121 543.741 382.652C550.693 398.351 565.966 409.966 582.851 412.203C593.059 429.468 616.995 436.489 636.45 435.166C646.635 450.915 668.517 457.006 686.631 452.596C686.96 452.518 687.283 452.427 687.616 452.339C689.042 455.319 690.913 458.082 693.204 460.471C713.062 481.196 744.168 471.61 762.726 454.672C762.639 455.153 762.559 455.647 762.49 456.166C762.085 459.178 761.796 462.363 760.742 465.225C758.823 470.423 767.719 472.066 767.79 466.863C767.858 461.947 769.102 457.092 769.203 452.147C769.251 449.908 769.047 447.713 767.293 446.106C765.014 444.021 761.434 444.406 758.609 444.382C754.25 444.343 749.861 444.239 745.513 444.674C743.131 444.893 743.573 448.238 745.671 448.627ZM582.895 394.389C583.421 386.096 588.472 377.863 597.185 376.549C606.455 375.147 615.635 381.594 614.108 391.593C612.483 402.271 601.449 407.389 591.798 408.272C589.923 408.448 588.048 408.485 586.188 408.399C583.854 404.176 582.574 399.433 582.895 394.389ZM636.214 414.54C636.935 406.439 642.052 398.989 650.593 398.156C659.122 397.328 666.87 403.093 665.287 412.225C663.614 421.848 653.838 426.694 645.29 428.756C643.408 429.207 641.478 429.555 639.524 429.829C637.008 425.184 635.736 419.942 636.214 414.54ZM694.713 443.983C693.508 444.51 692.283 444.976 691.046 445.416C689.442 440.314 689.477 434.67 691.816 428.958C693.293 425.347 695.794 422.028 699.231 420.103C704.365 417.227 710.697 418.186 711.88 424.764C713.632 434.521 702.066 440.785 694.713 443.983Z" fill="#D0D0D0"/>
<defs>
<linearGradient id="paint0_linear_8985_6" x1="960" y1="0" x2="960" y2="1048" gradientUnits="userSpaceOnUse">
<stop stop-color="#365993" stop-opacity="0"/>
<stop offset="1" stop-color="#365993" stop-opacity="0.1"/>
</linearGradient>
<clipPath id="clip0_8985_6">
<rect width="100" height="100" fill="white" transform="translate(1597 233)"/>
</clipPath>
</defs>
</svg>
