<svg width="92" height="92" viewBox="0 0 92 92" fill="none" xmlns="http://www.w3.org/2000/svg">
<path d="M59.3152 29.258C50.368 16.0949 38.4181 9.09887 32.16 13.3855C31.4709 13.8707 30.8722 14.473 30.3908 15.1648C30.3908 15.2154 15.9033 44.534 15.9033 44.534L7.81543 50.0136C6.57382 50.8564 5.51043 51.9356 4.68601 53.1896C3.86159 54.4435 3.29229 55.8475 3.01064 57.3215C2.72898 58.7955 2.74049 60.3106 3.04451 61.7801C3.34852 63.2496 3.93909 64.6449 4.78246 65.8861L5.14642 66.4219C6.85116 68.9053 9.46619 70.6164 12.4243 71.1841C15.3825 71.7519 18.4452 71.1306 20.9482 69.4549L33.9394 88.5929C35.8502 90.9485 39.5201 93.294 44.0493 90.534C44.8517 90.0138 45.5361 89.3311 46.0585 88.5301C46.5809 87.7291 46.9296 86.8275 47.0822 85.8835C47.2652 84.9445 47.2603 83.9786 47.0676 83.0415C46.875 82.1044 46.4986 81.2148 45.96 80.4242L34.5157 63.5406C34.5157 63.5406 61.5697 61.3872 61.6708 61.3468C62.5155 61.17 63.3164 60.8263 64.0264 60.3358C67.2414 58.1521 68.3939 53.5723 67.2818 47.4356C66.2809 41.7841 63.44 35.3846 59.3152 29.258ZM8.0884 64.4303L7.72444 63.8945C7.14256 63.0378 6.73533 62.0748 6.52608 61.0606C6.31683 60.0464 6.30967 59.0008 6.50499 57.9838C6.70032 56.9668 7.0943 55.9983 7.66438 55.1338C8.23447 54.2692 8.96946 53.5256 9.8273 52.9455L16.8132 48.1938L26.0335 61.7714L19.0475 66.5231C18.1907 67.1057 17.2274 67.5137 16.2128 67.7239C15.1981 67.9341 14.152 67.9422 13.1343 67.7478C12.1165 67.5535 11.147 67.1605 10.2812 66.5912C9.41538 66.022 8.67026 65.2877 8.0884 64.4303ZM43.0484 82.4158C43.601 83.238 43.8048 84.2457 43.6153 85.218C43.4258 86.1903 42.8583 87.0477 42.0374 87.6022C41.2137 88.1553 40.2043 88.3594 39.2304 88.1699C38.2564 87.9804 37.3972 87.4128 36.8409 86.5912L23.8902 67.5138L29.0968 63.9754L30.4717 63.8641L43.0484 82.4158ZM29.3798 60.3965L19.3306 45.5956L28.9148 26.0532C29.8449 31.5428 32.5644 38.0637 36.9117 44.4633C41.2589 50.8628 46.3139 55.7965 51.0655 58.6879L29.3798 60.3965ZM59.204 58.0409C54.3715 57.7274 46.506 52.2782 39.8436 42.4615C33.1811 32.6448 31.0176 23.3538 32.5038 18.7336C32.7722 17.8664 33.3077 17.1061 34.034 16.5614C34.7602 16.0167 35.64 15.7155 36.5477 15.7006C41.3398 15.7006 49.4985 21.1802 56.353 31.28C60.215 36.9617 63.0255 42.9063 63.7939 48.1028C65.3003 58.0409 59.204 58.0409 59.204 58.0409Z" fill="#D0D0D0"/>
<path d="M46.6777 29.632C45.4393 29.3888 44.1649 29.395 42.9289 29.6502C41.693 29.9054 40.5203 30.4044 39.4795 31.1182C39.2876 31.2509 39.1238 31.4202 38.9974 31.6163C38.8709 31.8123 38.7844 32.0314 38.7426 32.2609C38.7008 32.4905 38.7046 32.726 38.7539 32.954C38.8031 33.1821 38.8968 33.3982 39.0296 33.59C39.1623 33.7819 39.3316 33.9457 39.5277 34.0721C39.7237 34.1986 39.9428 34.2852 40.1723 34.3269C40.4019 34.3687 40.6374 34.3649 40.8654 34.3156C41.0935 34.2664 41.3096 34.1727 41.5014 34.0399C42.1606 33.5925 42.9015 33.2793 43.6817 33.1182C44.4619 32.9571 45.2662 32.9513 46.0487 33.101C46.8312 33.2507 47.5765 33.5531 48.2421 33.9909C48.9077 34.4287 49.4806 34.9933 49.928 35.6525C50.3755 36.3116 50.6887 37.0525 50.8498 37.8327C51.0109 38.6129 51.0167 39.4172 50.867 40.1997C50.7172 40.9822 50.4149 41.7275 49.9771 42.3931C49.5393 43.0588 48.9747 43.6316 48.3155 44.079C48.0047 44.2937 47.7707 44.6022 47.6479 44.9594C47.525 45.3165 47.5196 45.7037 47.6326 46.0641C47.7456 46.4245 47.971 46.7394 48.2758 46.9625C48.5806 47.1856 48.9488 47.3053 49.3265 47.3041C49.6869 47.3109 50.0404 47.2048 50.3375 47.0008C51.91 45.9356 53.1309 44.4276 53.8456 42.6679C54.5604 40.9082 54.7367 38.976 54.3524 37.116C53.968 35.256 53.0403 33.5519 51.6866 32.2196C50.333 30.8873 48.6144 29.9867 46.7485 29.632H46.6777Z" fill="#D0D0D0"/>
<path d="M61.4986 16.9542H61.6704C62.108 16.9541 62.53 16.7917 62.8549 16.4986C63.1798 16.2054 63.3846 15.8023 63.4296 15.367L64.7944 2.10281C64.8255 1.86826 64.8092 1.62987 64.7465 1.40173C64.6838 1.1736 64.576 0.960354 64.4294 0.774617C64.2828 0.588881 64.1005 0.434426 63.8932 0.32039C63.6859 0.206355 63.4579 0.135055 63.2225 0.11071C62.9872 0.0863647 62.7494 0.109468 62.5231 0.178654C62.2969 0.24784 62.0868 0.361702 61.9053 0.513504C61.7238 0.665307 61.5747 0.851965 61.4666 1.06244C61.3585 1.27291 61.2938 1.50292 61.2762 1.73885L59.9214 15.0131C59.8734 15.4796 60.0125 15.9462 60.3082 16.3101C60.604 16.6741 61.0321 16.9058 61.4986 16.9542Z" fill="#D0D0D0"/>
<path d="M84.368 14.2247C84.1082 13.8331 83.7041 13.5602 83.2438 13.4655C82.7836 13.3708 82.3045 13.462 81.9113 13.7192L69.5873 21.8071C69.2673 22.0184 69.0246 22.328 68.8958 22.6891C68.767 23.0503 68.759 23.4436 68.873 23.8097C68.9871 24.1759 69.217 24.495 69.5282 24.7191C69.8394 24.9432 70.2149 25.0602 70.5983 25.0524C70.956 25.0606 71.3079 24.962 71.6093 24.7693L83.9333 16.6814C84.3156 16.4124 84.5759 16.003 84.6574 15.5427C84.7388 15.0824 84.6348 14.6085 84.368 14.2247Z" fill="#D0D0D0"/>
<path d="M88.1389 35.8193L73.8031 33.2413C73.3406 33.1582 72.864 33.2622 72.4781 33.5305C72.0923 33.7988 71.8288 34.2093 71.7457 34.6719C71.6626 35.1344 71.7666 35.611 72.0349 35.9968C72.3032 36.3827 72.7137 36.6461 73.1763 36.7292L87.502 39.3073H87.8154C88.2662 39.3204 88.705 39.161 89.0421 38.8614C89.3793 38.5619 89.5893 38.145 89.6293 37.6958C89.6694 37.2466 89.5363 36.799 89.2574 36.4446C88.9785 36.0902 88.5748 35.8557 88.1288 35.789L88.1389 35.8193Z" fill="#D0D0D0"/>
</svg>
