<svg width="30" height="40" viewBox="0 0 30 40" fill="none" xmlns="http://www.w3.org/2000/svg">
<path d="M14.9267 11.0062C14.021 10.2835 12.959 9.71586 11.7578 9.36666C5.59044 7.57348 -0.467565 12.4983 0.0285215 18.902L1.34174 35.8507C1.45961 37.373 2.50837 38.663 3.97464 39.0893C5.56083 39.5505 7.2593 38.8947 8.12394 37.4873L15.0706 26.18L13.0537 23.0096C10.4548 18.9234 11.5408 13.8297 14.9267 11.0062Z" fill="#0068FF"/>
<path d="M18.9265 9.08016C17.3799 9.40385 16.0315 10.0846 14.9268 11.0059C18.4129 13.7877 19.5437 18.899 17.0228 23.0022L15.071 26.1793L22.1786 37.3524C22.9981 38.6407 24.5301 39.2866 26.0248 38.9738C27.6415 38.6354 28.8327 37.2583 28.9345 35.6096L29.982 18.6424C30.3559 12.5874 24.8643 7.8376 18.9265 9.08016Z" fill="#0068FF"/>
<path d="M9.19418 7.4196C11.243 7.4196 12.904 5.75867 12.904 3.7098C12.904 1.66093 11.243 0 9.19418 0C7.14531 0 5.48438 1.66093 5.48438 3.7098C5.48438 5.75867 7.14531 7.4196 9.19418 7.4196Z" fill="#0068FF"/>
<path d="M20.8055 7.4196C22.8544 7.4196 24.5153 5.75867 24.5153 3.7098C24.5153 1.66093 22.8544 0 20.8055 0C18.7566 0 17.0957 1.66093 17.0957 3.7098C17.0957 5.75867 18.7566 7.4196 20.8055 7.4196Z" fill="#0068FF"/>
</svg>
