<svg width="133" height="131" viewBox="0 0 133 131" fill="none" xmlns="http://www.w3.org/2000/svg">
<path d="M6.80608 87.068C12.3041 102.891 22.9281 117.403 37.8361 125.042C52.7441 132.681 72.0901 132.413 85.3791 122.215C98.6681 112.017 103.655 91.468 94.5161 77.429C81.9851 58.178 52.7601 58.876 35.6341 43.569C31.8371 40.175 28.7331 36.063 24.9311 32.675C21.1291 29.287 16.3081 26.576 11.2261 26.888C-8.49892 28.1 2.98008 76.058 6.80608 87.068Z" fill="#FF733B"/>
<path d="M15.4894 77.3939C20.9874 93.2169 31.6114 107.729 46.5194 115.368C61.4274 123.007 80.7734 122.739 94.0624 112.541C107.351 102.343 112.338 81.7939 103.2 67.7549C90.6694 48.5039 61.4444 49.2019 44.3174 33.8949C40.5204 30.5009 37.4174 26.3889 33.6144 23.0019C29.8124 19.6139 24.9914 16.9029 19.9094 17.2149C0.184355 18.4249 11.6644 66.3839 15.4894 77.3939Z" stroke="#090F32" stroke-miterlimit="10" stroke-linecap="round" stroke-linejoin="round"/>
<path d="M127.904 26.26C124.57 16.664 118.127 7.86301 109.086 3.23001C100.045 -1.40299 88.3132 -1.23999 80.2542 4.94401C72.1952 11.128 69.1712 23.591 74.7132 32.105C82.3122 43.78 100.036 43.356 110.422 52.639C112.725 54.697 114.607 57.191 116.913 59.245C119.219 61.299 122.142 62.944 125.224 62.755C137.186 62.021 130.224 32.937 127.904 26.26Z" fill="#998EFF"/>
<path d="M122.638 32.1269C119.304 22.5309 112.861 13.7299 103.82 9.09793C94.7793 4.46493 83.0473 4.62793 74.9883 10.8119C66.9293 16.9959 63.9043 29.4579 69.4463 37.9719C77.0453 49.6469 94.7693 49.2229 105.155 58.5059C107.458 60.5639 109.34 63.0579 111.646 65.1119C113.952 67.1659 116.875 68.8109 119.958 68.6219C131.919 67.8879 124.958 38.8039 122.638 32.1269Z" stroke="#090F32" stroke-miterlimit="10" stroke-linecap="round" stroke-linejoin="round"/>
</svg>
