<svg width="120" height="119" viewBox="0 0 120 119" fill="none" xmlns="http://www.w3.org/2000/svg">
<g clip-path="url(#clip0_8918_98)">
<path d="M53.1106 103.414C54.0436 103.056 54.5097 102.009 54.1515 101.076C53.7933 100.143 52.7466 99.6772 51.8135 100.035C50.8804 100.394 50.4144 101.44 50.7726 102.373C51.1307 103.306 52.1775 103.772 53.1106 103.414Z" fill="#D0D0D0"/>
<path d="M108.025 59.0951C107.658 58.1351 107.087 57.2656 106.353 56.5458C105.619 55.826 104.738 55.2728 103.771 54.9238C104.461 53.6294 104.738 52.1549 104.566 50.6984C104.393 49.2419 103.779 47.873 102.806 46.7754C101.833 45.6779 100.548 44.9042 99.1225 44.5583C97.6972 44.2124 96.2002 44.3108 94.8324 44.8403L82.0571 49.8417C79.2822 50.9069 78.3337 49.4517 78.0526 48.7474L73.7792 38.1509C72.7221 35.1996 68.9481 30.1075 62.3221 32.0013C59.0174 32.9558 57.1105 34.2509 56.5214 35.9606C56.3703 36.3832 56.3105 36.8331 56.3459 37.2805C56.3814 37.728 56.5114 38.1628 56.7273 38.5564C57.0896 39.5002 59.2934 44.9027 60.2779 47.806C61.0139 50.09 60.5188 51.2546 60.502 51.3802C57.0635 55.5469 55.3201 60.8556 55.6189 66.2496C55.8161 68.9354 54.9921 70.2588 54.6841 70.6694L51.7393 71.7998L50.8951 69.6007C50.7269 69.1626 50.3917 68.8093 49.963 68.6184C49.5343 68.4276 49.0474 68.4148 48.6093 68.583L33.1209 74.5284C32.6829 74.6966 32.3296 75.0319 32.1387 75.4606C31.9478 75.8892 31.9351 76.3761 32.1033 76.8142L32.259 77.22L23.0189 80.767C22.5808 80.9352 22.2275 81.2705 22.0366 81.6991C21.8458 82.1278 21.833 82.6147 22.0012 83.0528C22.1693 83.4908 22.5046 83.8442 22.9333 84.035C23.3619 84.2259 23.8489 84.2386 24.2869 84.0705L33.5649 80.509L44.0319 107.777L34.754 111.338C34.3159 111.506 33.9626 111.841 33.7717 112.27C33.5809 112.699 33.5681 113.186 33.7363 113.624C33.9044 114.062 34.2397 114.415 34.6684 114.606C35.097 114.797 35.584 114.81 36.022 114.641L45.3 111.08C45.4692 111.506 45.7974 111.851 46.2155 112.04C46.6336 112.229 47.1087 112.248 47.5407 112.093L63.0291 106.148C63.4672 105.98 63.8205 105.644 64.0114 105.216C64.2022 104.787 64.215 104.3 64.0468 103.862L52.9892 75.0561L56.2549 73.8025C56.4346 73.7338 56.6021 73.6366 56.7509 73.5147C57.0225 73.2913 59.4693 71.1175 59.0778 65.9507C58.8854 61.4788 60.3478 57.0929 63.1855 53.6314L63.2944 53.4921C63.5872 53.0981 64.9525 50.928 63.5863 46.7201C62.5265 43.4233 60.0452 37.326 59.8908 37.0929L59.869 37.0363C60.0601 36.8005 60.7813 36.1122 63.2489 35.4032C68.2444 33.9729 70.1952 38.8011 70.4213 39.4182L74.6947 50.0147C75.2693 51.437 76.3615 52.5887 77.7513 53.2381C78.6468 53.6089 79.6095 53.7902 80.5785 53.7704C81.5476 53.7507 82.5021 53.5304 83.3818 53.1234L96.1571 48.122C97.0486 47.8325 98.0172 47.8961 98.8632 48.2998C99.7092 48.7034 100.368 49.4162 100.704 50.2913C101.04 51.1664 101.027 52.137 100.669 53.0031C100.31 53.8691 99.6328 54.5645 98.7765 54.9459L96.8889 55.6706C96.4881 55.8604 96.1738 56.1946 96.0089 56.6063C95.844 57.018 95.8407 57.4768 95.9996 57.8908C96.1585 58.3048 96.468 58.6435 96.866 58.8391C97.264 59.0347 97.7212 59.0728 98.1461 58.9457L100.034 58.2211C100.925 57.9316 101.894 57.9952 102.74 58.3989C103.586 58.8025 104.245 59.5153 104.581 60.3904C104.917 61.2655 104.904 62.2361 104.545 63.1022C104.187 63.9682 103.509 64.6636 102.653 65.045L99.6046 66.2153C99.1666 66.3834 98.8132 66.7187 98.6224 67.1474C98.4315 67.576 98.4188 68.063 98.5869 68.501C98.7551 68.9391 99.0904 69.2924 99.519 69.4833C99.9477 69.6741 100.435 69.6869 100.873 69.5187L102.619 68.8484C103.073 68.6463 103.563 68.5386 104.06 68.5321C104.556 68.5255 105.049 68.6201 105.508 68.8102C105.967 69.0003 106.383 69.2818 106.729 69.6376C107.076 69.9935 107.347 70.4162 107.525 70.88C107.703 71.3438 107.785 71.839 107.765 72.3354C107.745 72.8318 107.625 73.3191 107.411 73.7674C107.197 74.2158 106.894 74.616 106.521 74.9435C106.147 75.271 105.711 75.519 105.238 75.6724L102.227 76.8282C101.789 76.9963 101.436 77.3316 101.245 77.7603C101.054 78.1889 101.042 78.6759 101.21 79.1139C101.378 79.552 101.713 79.9053 102.142 80.0962C102.571 80.287 103.057 80.2998 103.495 80.1316L105.251 79.4577C106.157 79.1099 107.164 79.1362 108.051 79.531C108.938 79.9258 109.631 80.6567 109.979 81.5629C110.327 82.469 110.301 83.4763 109.906 84.363C109.511 85.2497 108.78 85.9433 107.874 86.2911L78.2564 97.6603C77.118 97.9534 75.9273 97.9799 74.777 97.7378C73.6266 97.4957 72.5476 96.9915 71.6238 96.2645C70.9722 95.7499 70.1682 95.466 69.3379 95.4575C68.5076 95.4489 67.6979 95.7161 67.0358 96.2172C66.6744 96.4991 66.4365 96.9102 66.3722 97.3639C66.3079 97.8177 66.4222 98.2787 66.691 98.6499C66.9598 99.0211 67.3621 99.2735 67.8133 99.354C68.2645 99.4344 68.7293 99.3367 69.1098 99.0813C69.1908 99.0392 69.2763 99.0064 69.3647 98.9835C70.7502 100.091 72.3792 100.853 74.1173 101.206C75.8553 101.559 77.6525 101.494 79.3604 101.016L109.139 89.5851C110.918 88.905 112.356 87.5484 113.138 85.8115C113.92 84.0747 113.983 82.0989 113.312 80.3159C112.676 78.637 111.424 77.2631 109.812 76.4724C110.421 75.6278 110.838 74.661 111.036 73.6389C111.233 72.6169 111.206 71.5641 110.956 70.5536C110.706 69.5431 110.24 68.599 109.589 67.7868C108.938 66.9746 108.118 66.3138 107.186 65.8501C107.874 64.8816 108.311 63.7574 108.457 62.5785C108.604 61.3995 108.455 60.2026 108.025 59.0951ZM60.0905 103.486L47.9621 108.141L36.0785 77.1834L48.2257 72.5205L60.0905 103.486Z" fill="#D0D0D0"/>
<path d="M59.1151 26.5828C59.5515 26.4125 59.903 26.077 60.0936 25.649C60.2841 25.2211 60.2982 24.7353 60.1328 24.2971L56.2597 14.2074C56.0916 13.7694 55.7563 13.4161 55.3276 13.2252C54.899 13.0343 54.412 13.0216 53.974 13.1898C53.5359 13.3579 53.1826 13.6932 52.9917 14.1219C52.8009 14.5505 52.7881 15.0374 52.9563 15.4755L56.8294 25.5652C56.9975 26.0032 57.3328 26.3565 57.7615 26.5474C58.1901 26.7382 58.677 26.751 59.1151 26.5828Z" fill="#D0D0D0"/>
<path d="M68.2011 24.8606C68.4954 24.9059 68.7964 24.8725 69.0736 24.7639C69.3688 24.6496 69.6279 24.4581 69.8239 24.2096C70.02 23.961 70.1457 23.6644 70.188 23.3507L71.5812 12.8747C71.6453 12.4093 71.5218 11.9374 71.2379 11.5631C70.9541 11.1887 70.5331 10.9424 70.0677 10.8783C69.6023 10.8143 69.1305 10.9378 68.7561 11.2217C68.3817 11.5055 68.1354 11.9264 68.0714 12.3919L66.6781 22.8679C66.6174 23.3338 66.7435 23.8048 67.0288 24.1782C67.3142 24.5515 67.7356 24.7968 68.2011 24.8606Z" fill="#D0D0D0"/>
<path d="M76.5548 28.2593C76.794 28.444 77.077 28.5634 77.3762 28.6061C77.6753 28.6488 77.9805 28.6132 78.2618 28.5029C78.5646 28.3878 78.8303 28.1922 79.0301 27.9372L85.0241 20.2218C85.3122 19.8498 85.4407 19.3787 85.3814 18.9121C85.322 18.4454 85.0798 18.0214 84.7078 17.7334C84.3359 17.4453 83.8648 17.3168 83.3981 17.3761C82.9315 17.4355 82.5075 17.6777 82.2194 18.0497L76.2254 25.7651C75.9384 26.1396 75.8119 26.6127 75.8737 27.0804C75.9354 27.5482 76.1804 27.9722 76.5548 28.2593Z" fill="#D0D0D0"/>
<path d="M49.4519 31.3105C49.6928 31.5163 49.9847 31.6532 50.2969 31.7068C50.6091 31.7604 50.93 31.7287 51.2257 31.6151C51.5044 31.5103 51.7504 31.3337 51.9388 31.1031C52.2421 30.7442 52.3911 30.2799 52.3533 29.8116C52.3156 29.3432 52.0941 28.9088 51.7372 28.6032L43.692 21.7502C43.333 21.4472 42.8683 21.2992 42.4002 21.3388C41.932 21.3783 41.4988 21.6023 41.1957 21.9613C40.8927 22.3203 40.7446 22.785 40.7842 23.2532C40.8238 23.7213 41.0477 24.1546 41.4067 24.4576L49.4519 31.3105Z" fill="#D0D0D0"/>
<path d="M36.327 38.8718L45.9441 40.5947C46.4041 40.6754 46.8773 40.5721 47.2618 40.307C47.6463 40.042 47.9111 39.6364 47.9992 39.1777C48.0826 38.7158 47.9801 38.2397 47.714 37.853C47.4479 37.4663 47.0398 37.2004 46.5786 37.1132L36.9615 35.3903C36.4986 35.3066 36.0214 35.4103 35.6349 35.6785C35.2484 35.9467 34.9843 36.3574 34.9006 36.8203C34.817 37.2832 34.9206 37.7604 35.1888 38.1469C35.457 38.5334 35.8677 38.7976 36.3306 38.8812L36.327 38.8718Z" fill="#D0D0D0"/>
</g>
<defs>
<clipPath id="clip0_8918_98">
<rect width="92" height="92" fill="white" transform="translate(0.978516 33.1108) rotate(-21)"/>
</clipPath>
</defs>
</svg>
