<svg width="118" height="118" viewBox="0 0 118 118" fill="none" xmlns="http://www.w3.org/2000/svg">
<g clip-path="url(#clip0_8918_82)">
<path d="M55.8413 80.3865C56.5844 77.3779 56.4956 74.224 55.5846 71.2619C54.6737 68.2999 52.9747 65.6412 50.6694 63.5701C48.3641 61.4991 45.5392 60.0936 42.4969 59.504C39.4545 58.9143 36.3091 59.1628 33.3971 60.2227C30.485 61.2826 27.9158 63.1141 25.9642 65.5214C24.0126 67.9286 22.7521 70.8211 22.3174 73.8894C21.8827 76.9577 22.2902 80.0865 23.4963 82.9411C24.7024 85.7958 26.6617 88.2688 29.1648 90.0959C27.6831 91.6865 26.6787 93.6618 26.2665 95.7962C25.8543 97.9305 26.0508 100.138 26.8337 102.166L31.64 115.371C31.8005 115.812 32.1295 116.171 32.5548 116.369C32.9801 116.568 33.4667 116.589 33.9076 116.428C34.3486 116.268 34.7077 115.939 34.906 115.514C35.1043 115.088 35.1255 114.602 34.965 114.161L30.1587 100.956C28.9692 97.6875 29.7069 94.7186 32.3517 91.9054C35.2043 93.1897 38.3548 93.6656 41.4594 93.2813L41.9152 103.992C41.9273 104.299 42.0191 104.596 42.1816 104.856C42.344 105.116 42.5716 105.329 42.8416 105.474L49.9799 109.331C50.1985 109.448 50.4394 109.517 50.6868 109.535C50.9342 109.552 51.1825 109.517 51.4154 109.432C51.6501 109.347 51.8643 109.214 52.0442 109.041C52.224 108.868 52.3655 108.659 52.4594 108.428L55.4483 100.885C55.5624 100.599 55.5997 100.288 55.5566 99.9826C55.5135 99.6775 55.3914 99.3889 55.2025 99.1455L48.6088 90.6361C51.1823 88.9436 53.2462 86.5819 54.5787 83.8047C58.565 84.2043 61.0954 85.9837 62.2884 89.2613L67.0981 102.476C67.2586 102.917 67.5877 103.276 68.013 103.474C68.4382 103.673 68.9249 103.694 69.3658 103.533C69.8067 103.373 70.1658 103.044 70.3641 102.619C70.5624 102.193 70.5837 101.707 70.4232 101.266L65.6134 88.0511C64.5086 84.9566 61.8852 81.2959 55.8413 80.3865ZM49.9 105.239L45.4173 102.825L45.0338 93.8201L46.2308 93.3844L51.7635 100.516L49.9 105.239ZM43.9 89.0793C41.363 90.024 38.6025 90.1941 35.9687 89.5679C33.3348 88.9417 30.9463 87.5475 29.1058 85.562C27.2654 83.5765 26.0561 81.0893 25.6311 78.4156C25.2061 75.7419 25.5847 73.0022 26.7188 70.544C27.8529 68.0857 29.6915 66.0196 32.0014 64.6077C34.3112 63.1957 36.9884 62.5015 39.6933 62.613C42.3983 62.7245 45.0092 63.6368 47.195 65.2341C49.3808 66.8315 51.043 69.0419 51.9709 71.5852C53.2163 74.9755 53.066 78.7215 51.5529 82.0012C50.0399 85.2808 47.2876 87.8264 43.9 89.0793Z" fill="#D0D0D0"/>
<path d="M89.1465 28.3817C89.8911 25.3712 89.8033 22.2148 88.8924 19.2503C87.9815 16.2857 86.2818 13.6246 83.9752 11.5516C81.6685 9.4786 78.8417 8.07167 75.7971 7.48134C72.7525 6.89101 69.6046 7.13949 66.6904 8.20019C63.7761 9.2609 61.205 11.0939 59.2522 13.5032C57.2993 15.9124 56.0382 18.8073 55.6037 21.878C55.1692 24.9487 55.5777 28.0798 56.7855 30.9362C57.9933 33.7927 59.9549 36.2671 62.4604 38.0947C60.9754 39.6813 59.9661 41.6534 59.5477 43.7859C59.1293 45.9185 59.3185 48.1257 60.0939 50.1559L64.9106 63.3896C65.0711 63.8305 65.4001 64.1897 65.8254 64.388C66.2507 64.5863 66.7373 64.6075 67.1782 64.447C67.6192 64.2865 67.9783 63.9575 68.1766 63.5322C68.3749 63.1069 68.3961 62.6203 68.2356 62.1794L63.4259 48.9646C62.2398 45.7061 62.968 42.7406 65.6128 39.9275C68.4813 41.2145 71.6494 41.6847 74.768 41.286L75.2678 51.9704C75.2806 52.2781 75.373 52.5772 75.536 52.8385C75.699 53.0997 75.927 53.3142 76.1977 53.461L83.336 57.3181C83.5565 57.4363 83.7993 57.5069 84.0488 57.5254C84.2983 57.544 84.5489 57.51 84.7845 57.4256C85.018 57.3398 85.2306 57.2053 85.4083 57.0312C85.5861 56.8571 85.7248 56.6473 85.8155 56.4156L88.8044 48.8725C88.9198 48.5847 88.9575 48.2716 88.9137 47.9646C88.87 47.6577 88.7463 47.3676 88.5552 47.1235L81.9044 38.6348C84.4848 36.9407 86.5588 34.5798 87.9063 31.8025C91.8831 32.2056 94.423 33.9816 95.6125 37.2496L100.426 50.4739C100.586 50.9148 100.915 51.274 101.341 51.4723C101.766 51.6706 102.252 51.6918 102.693 51.5313C103.134 51.3708 103.493 51.0418 103.692 50.6165C103.89 50.1912 103.911 49.7046 103.751 49.2637L98.9376 36.0394C97.8138 32.9519 95.1938 29.3007 89.1465 28.3817ZM83.2561 53.2265L78.764 50.8163L78.3769 41.8015L79.6025 41.3554L85.1386 48.4961L83.2561 53.2265ZM77.2466 37.0702C74.7091 38.0279 71.9441 38.2097 69.3031 37.5923C66.6621 36.975 64.2642 35.5864 62.4141 33.6031C60.564 31.6198 59.3453 29.1313 58.9129 26.4538C58.4804 23.7762 58.8537 21.0306 59.9853 18.5657C61.1169 16.1008 62.9557 14.0279 65.2681 12.6105C67.5805 11.1931 70.2621 10.4951 72.9721 10.6053C75.6821 10.7154 78.2982 11.6287 80.4879 13.2291C82.6776 14.8296 84.3422 17.0448 85.27 19.5934C86.5154 22.9838 86.3651 26.7297 84.852 30.0094C83.339 33.2891 80.5867 35.8346 77.1991 37.0875L77.2466 37.0702Z" fill="#D0D0D0"/>
<path d="M47.8463 26.1999C44.3271 25.7964 40.7652 26.3827 37.5611 27.8929C34.357 29.4031 31.6377 31.7774 29.7093 34.7486C28.1557 37.1431 27.2111 39.8812 26.9577 42.7242C26.7042 45.5673 27.1497 48.4293 28.2552 51.0609L24.1017 49.1083C23.6726 48.9092 23.182 48.8888 22.7378 49.0515C22.2936 49.2142 21.9322 49.5466 21.7332 49.9758C21.5341 50.4049 21.5137 50.8955 21.6763 51.3397C21.839 51.7839 22.1715 52.1453 22.6006 52.3443L31.6047 56.5982C32.0311 56.7977 32.519 56.8212 32.9625 56.6635L33.029 56.6392C33.2558 56.5447 33.4609 56.4047 33.6315 56.2279C33.8022 56.051 33.9348 55.8411 34.0212 55.6111L37.5373 46.0579C37.6817 45.6222 37.6512 45.1473 37.4521 44.7337C37.253 44.3201 36.9009 44 36.4702 43.8412C36.0395 43.6823 35.5639 43.6971 35.1439 43.8823C34.7239 44.0676 34.3923 44.4089 34.2193 44.8341L32.0046 50.7505C30.868 48.5481 30.3332 46.0846 30.4542 43.6091C30.5753 41.1337 31.348 38.7341 32.6941 36.6531C34.2806 34.2338 36.5095 32.3041 39.1309 31.0801C41.7524 29.8561 44.6629 29.3863 47.5364 29.7232C47.7715 29.7509 48.0098 29.7312 48.2371 29.6651C48.4644 29.599 48.6762 29.488 48.8598 29.3386C49.0435 29.1893 49.1953 29.0045 49.3063 28.7954C49.4172 28.5863 49.4851 28.357 49.5058 28.1212C49.5266 27.8853 49.4998 27.6478 49.427 27.4225C49.3543 27.1972 49.2371 26.9888 49.0823 26.8096C48.9275 26.6305 48.7384 26.4842 48.5261 26.3795C48.3138 26.2747 48.0826 26.2137 47.8463 26.1999Z" fill="#D0D0D0"/>
<path d="M92.506 61.673C92.2852 61.5663 92.0445 61.5072 91.7994 61.4996C91.5543 61.492 91.3104 61.536 91.0834 61.6287C90.8565 61.7215 90.6515 61.8609 90.482 62.038C90.3124 62.2151 90.1819 62.4258 90.099 62.6566L86.57 72.2038C86.4518 72.5221 86.4271 72.8677 86.499 73.1996C86.5708 73.5315 86.7362 73.836 86.9755 74.0769C87.2148 74.3179 87.518 74.4854 87.8494 74.5595C88.1809 74.6337 88.5266 74.6115 88.8458 74.4955C89.0869 74.4055 89.3061 74.265 89.4886 74.0835C89.6712 73.9021 89.8129 73.6837 89.9044 73.4431L92.1017 67.4792C93.2345 69.6786 93.7675 72.1378 93.6469 74.6088C93.5263 77.0799 92.7564 79.4755 91.4149 81.5541C89.8284 83.9734 87.5995 85.9032 84.978 87.1272C82.3565 88.3511 79.446 88.821 76.5726 88.484C76.1278 88.477 75.6967 88.6378 75.3651 88.9345C75.0336 89.2311 74.8259 89.6417 74.7836 90.0846C74.7412 90.5274 74.8672 90.97 75.1366 91.3241C75.4059 91.6782 75.7987 91.9178 76.2368 91.9952C79.2472 92.2888 82.2853 91.9175 85.1365 90.9078C88.9712 89.5229 92.2374 86.9036 94.4222 83.4613C95.9717 81.0642 96.9121 78.3248 97.1616 75.4814C97.4111 72.638 96.9621 69.7767 95.8538 67.1464L100.007 69.099C100.432 69.2981 100.919 69.3204 101.36 69.1608C101.801 69.0012 102.161 68.6728 102.36 68.2479C102.559 67.823 102.582 67.3364 102.422 66.8951C102.262 66.4539 101.934 66.0941 101.509 65.8949L92.506 61.673Z" fill="#D0D0D0"/>
</g>
<defs>
<clipPath id="clip0_8918_82">
<rect width="92" height="92" fill="white" transform="translate(0.0400391 31.5071) rotate(-20)"/>
</clipPath>
</defs>
</svg>
