<svg width="65" height="65" viewBox="0 0 65 65" fill="none" xmlns="http://www.w3.org/2000/svg">
<path d="M57.8911 44.6875H55.8599V36.5625C55.8599 36.0238 55.6459 35.5071 55.2649 35.1262C54.884 34.7453 54.3674 34.5312 53.8286 34.5312H51.7974C51.2587 34.5312 50.742 34.7453 50.3611 35.1262C49.9801 35.5071 49.7661 36.0238 49.7661 36.5625V44.6875H48.7505V30.4688C48.7505 29.93 48.5365 29.4134 48.1556 29.0324C47.7746 28.6515 47.258 28.4375 46.7193 28.4375H44.688C44.1493 28.4375 43.6326 28.6515 43.2517 29.0324C42.8708 29.4134 42.6568 29.93 42.6568 30.4688V44.6875H41.6411V33.5156C41.6411 32.9769 41.4271 32.4602 41.0462 32.0793C40.6653 31.6984 40.1486 31.4844 39.6099 31.4844H37.5786C37.0399 31.4844 36.5233 31.6984 36.1423 32.0793C35.7614 32.4602 35.5474 32.9769 35.5474 33.5156V44.6875C35.2781 44.6872 35.0199 44.5801 34.8295 44.3897C34.6391 44.1993 34.532 43.9412 34.5318 43.6719V27.4219C34.5318 27.1525 34.4248 26.8942 34.2343 26.7037C34.0438 26.5133 33.7855 26.4062 33.5161 26.4062C33.2468 26.4062 32.9884 26.5133 32.798 26.7037C32.6075 26.8942 32.5005 27.1525 32.5005 27.4219V43.6719C32.5014 44.4797 32.8227 45.2542 33.3939 45.8254C33.9651 46.3966 34.7396 46.7179 35.5474 46.7188H57.8911C58.1605 46.7188 58.4188 46.6117 58.6093 46.4213C58.7998 46.2308 58.9068 45.9725 58.9068 45.7031C58.9068 45.4338 58.7998 45.1754 58.6093 44.985C58.4188 44.7945 58.1605 44.6875 57.8911 44.6875ZM37.5786 44.6875L37.5771 33.5156H39.6099V44.6875H37.5786ZM44.688 44.6875L44.6865 30.4688H46.7193V44.6875H44.688ZM51.7974 44.6875L51.7959 36.5625H53.8286V44.6875H51.7974ZM46.7193 14.2188C46.7192 14.0854 46.7455 13.9533 46.7965 13.83C46.8475 13.7068 46.9223 13.5948 47.0166 13.5005C47.111 13.4062 47.2229 13.3314 47.3462 13.2804C47.4694 13.2293 47.6015 13.2031 47.7349 13.2031H56.8755C57.1449 13.2031 57.4032 13.3101 57.5937 13.5006C57.7841 13.6911 57.8911 13.9494 57.8911 14.2188C57.8911 14.4881 57.7841 14.7464 57.5937 14.9369C57.4032 15.1274 57.1449 15.2344 56.8755 15.2344H47.7349C47.6015 15.2344 47.4694 15.2082 47.3462 15.1571C47.2229 15.1061 47.111 15.0313 47.0166 14.937C46.9223 14.8427 46.8475 14.7307 46.7965 14.6075C46.7455 14.4842 46.7192 14.3521 46.7193 14.2188ZM43.6724 14.2188C43.6724 14.0179 43.7319 13.8215 43.8435 13.6545C43.9551 13.4875 44.1138 13.3573 44.2993 13.2804C44.4849 13.2036 44.6891 13.1835 44.8861 13.2226C45.0832 13.2618 45.2641 13.3586 45.4062 13.5006C45.5482 13.6426 45.6449 13.8236 45.6841 14.0206C45.7233 14.2176 45.7032 14.4218 45.6263 14.6074C45.5494 14.793 45.4193 14.9516 45.2523 15.0632C45.0852 15.1748 44.8889 15.2344 44.688 15.2344C44.4186 15.2344 44.1603 15.1274 43.9698 14.9369C43.7794 14.7464 43.6724 14.4881 43.6724 14.2188ZM46.7193 18.2812C46.7192 18.1479 46.7455 18.0158 46.7965 17.8925C46.8475 17.7693 46.9223 17.6573 47.0166 17.563C47.111 17.4687 47.2229 17.3939 47.3462 17.3429C47.4694 17.2918 47.6015 17.2656 47.7349 17.2656H56.8755C57.1449 17.2656 57.4032 17.3726 57.5937 17.5631C57.7841 17.7536 57.8911 18.0119 57.8911 18.2812C57.8911 18.5506 57.7841 18.8089 57.5937 18.9994C57.4032 19.1899 57.1449 19.2969 56.8755 19.2969H47.7349C47.6015 19.2969 47.4694 19.2707 47.3462 19.2196C47.2229 19.1686 47.111 19.0938 47.0166 18.9995C46.9223 18.9052 46.8475 18.7932 46.7965 18.67C46.7455 18.5467 46.7192 18.4146 46.7193 18.2812ZM46.7193 22.3438C46.7192 22.2104 46.7455 22.0783 46.7965 21.955C46.8475 21.8318 46.9223 21.7198 47.0166 21.6255C47.111 21.5312 47.2229 21.4564 47.3462 21.4054C47.4694 21.3543 47.6015 21.3281 47.7349 21.3281H56.8755C57.1449 21.3281 57.4032 21.4351 57.5937 21.6256C57.7841 21.8161 57.8911 22.0744 57.8911 22.3438C57.8911 22.6131 57.7841 22.8714 57.5937 23.0619C57.4032 23.2524 57.1449 23.3594 56.8755 23.3594H47.7349C47.6015 23.3594 47.4694 23.3332 47.3462 23.2821C47.2229 23.2311 47.111 23.1563 47.0166 23.062C46.9223 22.9677 46.8475 22.8557 46.7965 22.7325C46.7455 22.6092 46.7192 22.4771 46.7193 22.3438ZM43.6724 18.2812C43.6724 18.0804 43.7319 17.884 43.8435 17.717C43.9551 17.55 44.1138 17.4198 44.2993 17.3429C44.4849 17.2661 44.6891 17.246 44.8861 17.2851C45.0832 17.3243 45.2641 17.4211 45.4062 17.5631C45.5482 17.7051 45.6449 17.8861 45.6841 18.0831C45.7233 18.2801 45.7032 18.4843 45.6263 18.6699C45.5494 18.8555 45.4193 19.0141 45.2523 19.1257C45.0852 19.2373 44.8889 19.2969 44.688 19.2969C44.4186 19.2969 44.1603 19.1899 43.9698 18.9994C43.7794 18.8089 43.6724 18.5506 43.6724 18.2812ZM43.6724 22.3438C43.6724 22.1429 43.7319 21.9465 43.8435 21.7795C43.9551 21.6125 44.1138 21.4823 44.2993 21.4054C44.4849 21.3286 44.6891 21.3085 44.8861 21.3476C45.0832 21.3868 45.2641 21.4836 45.4062 21.6256C45.5482 21.7676 45.6449 21.9486 45.6841 22.1456C45.7233 22.3426 45.7032 22.5468 45.6263 22.7324C45.5494 22.918 45.4193 23.0766 45.2523 23.1882C45.0852 23.2998 44.8889 23.3594 44.688 23.3594C44.4186 23.3594 44.1603 23.2524 43.9698 23.0619C43.7794 22.8714 43.6724 22.6131 43.6724 22.3438ZM59.9224 7.10938H9.14113C8.33332 7.11026 7.55885 7.43155 6.98764 8.00276C6.41643 8.57397 6.09514 9.34844 6.09426 10.1562V23.4107C5.24929 23.5291 4.47557 23.9488 3.91566 24.5926C3.35575 25.2364 3.04739 26.0609 3.04739 26.9141C3.04739 27.7673 3.35575 28.5917 3.91566 29.2355C4.47557 29.8793 5.24929 30.2991 6.09426 30.4174V35.1822C4.71363 36.5076 3.63792 38.1175 2.94177 39.9002C2.24561 41.6829 1.94569 43.5958 2.06281 45.506C2.17993 47.4163 2.71129 49.2782 3.62002 50.9625C4.52875 52.6468 5.79308 54.1133 7.32528 55.2601C8.85748 56.4068 10.6209 57.2065 12.493 57.6036C14.3652 58.0006 16.3014 57.9856 18.1672 57.5595C20.033 57.1333 21.7837 56.3064 23.2979 55.1359C24.8121 53.9654 26.0535 52.4795 26.9359 50.7812H59.9224C60.7302 50.7804 61.5047 50.4591 62.0759 49.8879C62.6471 49.3167 62.9684 48.5422 62.9693 47.7344V10.1562C62.9684 9.34844 62.6471 8.57397 62.0759 8.00276C61.5047 7.43155 60.7302 7.11026 59.9224 7.10938ZM5.07863 26.9141C5.07863 26.6128 5.16798 26.3182 5.33538 26.0677C5.50277 25.8172 5.7407 25.6219 6.01907 25.5066C6.29745 25.3913 6.60376 25.3611 6.89928 25.4199C7.19479 25.4787 7.46624 25.6238 7.6793 25.8368C7.89236 26.0499 8.03745 26.3213 8.09623 26.6169C8.15502 26.9124 8.12485 27.2187 8.00954 27.4971C7.89424 27.7754 7.69897 28.0134 7.44844 28.1808C7.19792 28.3482 6.90338 28.4375 6.60207 28.4375C6.19816 28.4371 5.81093 28.2764 5.52532 27.9908C5.23972 27.7052 5.07907 27.318 5.07863 26.9141ZM14.2193 33.5671V44.0804L4.95911 49.0667C4.26795 47.4474 3.96961 45.6876 4.08847 43.9309C4.20733 42.1743 4.74001 40.4707 5.64301 38.9593C6.54601 37.4478 7.79372 36.1714 9.28423 35.2343C10.7747 34.2971 12.4658 33.7259 14.2193 33.5671ZM16.2505 33.5671C18.8492 33.8077 21.2819 34.9496 23.1274 36.795C24.9728 38.6404 26.1147 41.0732 26.3553 43.6719H16.2505V33.5671ZM15.2349 55.8594C13.3907 55.8584 11.5755 55.4006 9.95133 54.5271C8.32718 53.6535 6.94464 52.3913 5.9272 50.8532L15.4917 45.7031H26.3553C26.0995 48.4769 24.8178 51.0553 22.761 52.9337C20.7042 54.8122 18.0204 55.8555 15.2349 55.8594ZM60.938 47.7344C60.9377 48.0037 60.8306 48.2618 60.6402 48.4522C60.4498 48.6426 60.1917 48.7497 59.9224 48.75H27.7919C28.6345 46.1629 28.656 43.3784 27.8533 40.7785C27.0507 38.1787 25.4633 35.8909 23.3089 34.229C21.1544 32.5672 18.5386 31.6126 15.8202 31.4963C13.1018 31.3801 10.414 32.1078 8.12551 33.5796V30.1122C8.73156 29.8254 9.24398 29.3728 9.60346 28.8068C9.96294 28.2408 10.1548 27.5846 10.1568 26.9141C10.1538 26.3815 10.0297 25.8566 9.79393 25.3791L14.9332 20.8107C15.4091 21.097 15.9453 21.2681 16.4991 21.3101C17.0529 21.3521 17.6089 21.264 18.1225 21.0528L22.5981 24.5865C22.3819 25.1285 22.3026 25.7154 22.3672 26.2954C22.4317 26.8754 22.6381 27.4305 22.9681 27.9117C23.2982 28.393 23.7417 28.7855 24.2594 29.0546C24.7772 29.3238 25.3533 29.4612 25.9368 29.4548C26.5203 29.4484 27.0932 29.2984 27.605 29.018C28.1167 28.7376 28.5515 28.3355 28.8709 27.8471C29.1904 27.3588 29.3846 26.7993 29.4364 26.218C29.4882 25.6368 29.3961 25.0518 29.1681 24.5146L35.0391 19.6647C35.7381 20.1496 36.5883 20.3669 37.4343 20.2767C38.2803 20.1865 39.0656 19.7949 39.6467 19.1735C40.2278 18.552 40.5659 17.7422 40.5991 16.8921C40.6324 16.042 40.3587 15.2082 39.8279 14.5433C39.2972 13.8783 38.5449 13.4265 37.7085 13.2705C36.8722 13.1145 36.0076 13.2646 35.2728 13.6934C34.538 14.1223 33.982 14.8012 33.7065 15.6062C33.431 16.4111 33.4544 17.2883 33.7723 18.0775L27.8768 22.9476C27.2805 22.5503 26.5782 22.3423 25.8617 22.351C25.1453 22.3596 24.4481 22.5845 23.8617 22.9961L19.7259 19.7309C20.0706 19.2129 20.2733 18.6135 20.3137 17.9926C20.354 17.3716 20.2307 16.751 19.9559 16.1928C19.6811 15.6345 19.2645 15.1582 18.7478 14.8115C18.2312 14.4647 17.6325 14.2598 17.0117 14.2171C16.391 14.1743 15.7699 14.2954 15.2106 14.568C14.6513 14.8407 14.1734 15.2555 13.8247 15.7708C13.4761 16.2862 13.2688 16.8841 13.2238 17.5047C13.1787 18.1253 13.2974 18.7468 13.5679 19.3071L8.42491 23.8787C8.32778 23.82 8.22841 23.7652 8.12551 23.7159V10.1562C8.12577 9.88697 8.23286 9.6288 8.42327 9.43839C8.61368 9.24798 8.87185 9.14089 9.14113 9.14062H59.9224C60.1917 9.14089 60.4498 9.24798 60.6402 9.43839C60.8306 9.6288 60.9377 9.88697 60.938 10.1562V47.7344ZM17.8356 18.8507C17.6225 19.0637 17.3511 19.2088 17.0555 19.2676C16.76 19.3264 16.4537 19.2962 16.1753 19.1809C15.897 19.0656 15.659 18.8703 15.4916 18.6198C15.3242 18.3693 15.2349 18.0747 15.2349 17.7734C15.2349 17.4721 15.3242 17.1776 15.4916 16.9271C15.659 16.6765 15.897 16.4813 16.1753 16.366C16.4537 16.2507 16.76 16.2205 17.0555 16.2793C17.3511 16.338 17.6225 16.4831 17.8356 16.6962C18.1208 16.9821 18.281 17.3695 18.281 17.7734C18.281 18.1773 18.1208 18.5648 17.8356 18.8507ZM26.9762 26.9757C26.7631 27.1887 26.4917 27.3338 26.1962 27.3926C25.9006 27.4514 25.5943 27.4212 25.316 27.3059C25.0376 27.1906 24.7997 26.9953 24.6323 26.7448C24.4649 26.4943 24.3755 26.1997 24.3755 25.8984C24.3755 25.5971 24.4649 25.3026 24.6323 25.0521C24.7997 24.8015 25.0376 24.6063 25.316 24.491C25.5943 24.3757 25.9006 24.3455 26.1962 24.4043C26.4917 24.4631 26.7631 24.6081 26.9762 24.8212C27.2615 25.1071 27.4217 25.4945 27.4217 25.8984C27.4217 26.3023 27.2615 26.6898 26.9762 26.9757ZM35.9936 15.6806C36.2066 15.4675 36.4781 15.3224 36.7736 15.2636C37.0691 15.2049 37.3754 15.235 37.6538 15.3503C37.9322 15.4656 38.1701 15.6609 38.3375 15.9114C38.5049 16.162 38.5942 16.4565 38.5942 16.7578C38.5942 17.0591 38.5049 17.3537 38.3375 17.6042C38.1701 17.8547 37.9322 18.05 37.6538 18.1653C37.3754 18.2806 37.0691 18.3108 36.7736 18.252C36.4781 18.1932 36.2066 18.0481 35.9936 17.8351C35.7083 17.5491 35.548 17.1617 35.548 16.7578C35.548 16.3539 35.7083 15.9665 35.9936 15.6806Z" fill="#998EFF"/>
</svg>
