<svg width="66" height="65" viewBox="0 0 66 65" fill="none" xmlns="http://www.w3.org/2000/svg">
<g clip-path="url(#clip0_8527_223)">
<path d="M33.0003 20.0874C36.8168 20.0874 40.2351 21.8197 42.5139 24.5377L44.1821 23.3572C41.5329 20.1216 37.5081 18.0562 33.0003 18.0562C25.0231 18.0562 18.5557 24.5226 18.5557 32.5001C18.5557 40.4776 25.0231 46.9447 33.0003 46.9447C39.8459 46.9447 45.5751 42.1813 47.0643 35.789C46.0879 36.4808 45.1347 37.156 44.2218 37.8021C42.2297 42.0017 37.9495 44.9134 33.0003 44.9134C26.1555 44.9134 20.5869 39.3449 20.5869 32.5001C20.5869 25.6558 26.1555 20.0874 33.0003 20.0874Z" fill="#998EFF"/>
<path d="M62.29 27.0829H59.3537C58.4551 27.7197 57.492 28.4018 56.4868 29.1142H57.6909H62.29C62.9287 29.1142 63.4688 29.839 63.4688 30.6966V34.3054C63.4688 35.1621 62.9287 35.8858 62.29 35.8858H57.6909H56.0549L55.7063 37.4844C55.1226 40.1618 54.0692 42.7009 52.5761 45.0309L51.6944 46.4073L52.8503 47.5633L56.1065 50.8194C56.3499 51.0622 56.3852 51.3855 56.3713 51.6137C56.3475 52.022 56.1461 52.4433 55.8208 52.7693L53.2709 55.3206C52.9182 55.6721 52.467 55.8737 52.0326 55.8737C51.8292 55.8737 51.5406 55.8274 51.3184 55.6045L48.0623 52.3496L46.9063 51.1941L45.5302 52.0761C43.2018 53.5683 40.6633 54.6213 37.9844 55.206L36.3861 55.5549V57.1907V61.7907C36.3861 62.4292 35.662 62.9688 34.8046 62.9688H31.1956C30.3384 62.9688 29.6144 62.4292 29.6144 61.7907V57.1907V55.5549L28.0161 55.206C25.3367 54.6213 22.7979 53.5683 20.4701 52.0761L19.0937 51.1938L17.9377 52.3498L14.6806 55.6065C14.4599 55.8274 14.1713 55.8737 13.9679 55.8737C13.5335 55.8737 13.082 55.6721 12.7311 55.3221L10.1799 52.7698C9.8536 52.4433 9.65276 52.022 9.62874 51.6141C9.61533 51.3857 9.65027 51.0627 9.89555 50.8182L13.1504 47.5633L14.3061 46.4073L13.4244 45.0309C11.9315 42.7014 10.8784 40.1623 10.2942 37.4841L9.94561 35.8858H8.30959H3.71028C3.0713 35.8858 2.53125 35.1621 2.53125 34.3054V30.6966C2.53125 29.839 3.0713 29.1142 3.71028 29.1142H8.30959H9.94561L10.2942 27.5159C10.8784 24.8374 11.9315 22.2986 13.4242 19.9703L14.3064 18.5939L13.1504 17.438L9.89377 14.1808C9.67287 13.9606 9.6265 13.6725 9.62625 13.4694C9.626 13.035 9.8276 12.5845 10.1792 12.2326L12.7304 9.68043C13.083 9.32831 13.5343 9.12625 13.9687 9.12625C14.1718 9.12625 14.4601 9.17262 14.6823 9.39529L17.9377 12.6502L19.0937 13.8062L20.4701 12.9239C22.7974 11.432 25.3362 10.3796 28.0154 9.79596L29.6144 9.44785V7.81132V3.20927C29.6144 2.5708 30.3384 2.03125 31.1956 2.03125H34.8046C35.662 2.03125 36.3861 2.5708 36.3861 3.20927V7.81132V9.44785L37.9849 9.79596C40.6638 10.3796 43.2024 11.432 45.5302 12.9239L46.9063 13.8059L48.0623 12.6504L51.3204 9.39352C51.5406 9.17262 51.8287 9.12625 52.0315 9.12625C52.466 9.12625 52.9173 9.32831 53.2689 9.67941L55.8213 12.2331C56.1466 12.5587 56.3475 12.9792 56.3713 13.3869C56.3852 13.6152 56.3499 13.9385 56.1055 14.1825L53.5863 16.702L58.3996 13.2956C58.3549 12.4139 57.9706 11.5096 57.2575 10.7967L54.7055 8.24352C53.9448 7.48328 52.9673 7.095 52.0315 7.095C51.2307 7.095 50.46 7.37963 49.8823 7.95889L46.6261 11.2138C44.1505 9.62686 41.3829 8.45726 38.4173 7.81132V3.20927C38.4173 1.43665 36.8002 0 34.8046 0H31.1956C29.1998 0 27.5832 1.43665 27.5832 3.20927V7.81132C24.6174 8.45726 21.8495 9.62686 19.3739 11.2138L16.1184 7.95889C15.5405 7.37963 14.7698 7.095 13.9687 7.095C13.0329 7.095 12.0557 7.48302 11.2947 8.24352L8.7425 10.7967C7.33216 12.2071 7.20348 14.3663 8.45909 15.6189L11.714 18.8741C10.1271 21.3497 8.9565 24.1174 8.30959 27.0829H3.71028C1.93665 27.0829 0.5 28.6998 0.5 30.6966V34.3054C0.5 36.3002 1.93665 37.9171 3.71028 37.9171H8.30959C8.9565 40.8826 10.1271 43.6503 11.714 46.1269L8.45909 49.3818C7.20348 50.6347 7.33216 52.7929 8.7425 54.2053L11.2947 56.7582C12.0555 57.5174 13.0327 57.905 13.9679 57.905C14.7693 57.905 15.5402 57.6206 16.1184 57.0411L19.3739 53.7862C21.8495 55.3731 24.6174 56.5435 27.5832 57.1907V61.7907C27.5832 63.5633 29.1998 65 31.1956 65H34.8046C36.8002 65 38.4173 63.5633 38.4173 61.7907V57.1907C41.3829 56.5435 44.1505 55.3731 46.6261 53.7862L49.8823 57.0411C50.46 57.6204 51.2312 57.905 52.0326 57.905C52.9678 57.905 53.9448 57.5174 54.7055 56.7582L57.2575 54.2053C58.6678 52.7929 58.7968 50.6347 57.5416 49.3818L54.2865 46.1269C55.8734 43.6503 57.0442 40.8826 57.6909 37.9171H62.29C64.0633 37.9171 65.5 36.3002 65.5 34.3054V30.6966C65.5 28.6998 64.0633 27.0829 62.29 27.0829Z" fill="#998EFF"/>
<path d="M35.7248 31.8062C35.6831 31.747 35.6425 31.686 35.6058 31.6284L31.6286 26.2431C31.1131 25.5141 30.2752 25.0787 29.3875 25.0787C28.8058 25.0787 28.2487 25.2612 27.7761 25.6066L26.0144 26.8947C24.7917 27.7879 24.511 29.524 25.3994 30.7799C25.449 30.8476 30.3881 37.566 32.5453 40.628C32.9921 41.262 33.7223 41.6406 34.4994 41.6406H34.4999C35.0097 41.6406 35.513 41.4757 35.9554 41.1633C41.4957 37.2496 64.3493 21.0541 64.3616 21.0452C65.5836 20.1518 65.8643 18.4156 64.987 17.1744L63.719 15.3832C63.2037 14.6541 62.3661 14.2188 61.4784 14.2188C60.8967 14.2188 60.3398 14.401 59.8786 14.7375L36.3531 31.3864C36.1553 31.5382 35.9182 31.6947 35.7248 31.8062ZM61.0639 16.3871C61.3788 16.157 61.8355 16.2374 62.0601 16.5562L63.3287 18.3475C63.5692 18.6882 63.4948 19.1627 63.1749 19.3968C63.1749 19.3968 40.3234 35.5908 34.7835 39.5043C34.6844 39.5739 34.5892 39.6094 34.4999 39.6094C34.3616 39.6094 34.2549 39.5278 34.2058 39.4581C32.037 36.3795 27.0858 29.6443 27.0469 29.592C26.8063 29.2518 26.8805 28.7774 27.213 28.5347L28.9749 27.2463C29.097 27.1571 29.2395 27.1099 29.3875 27.1099C29.6204 27.1099 29.8326 27.2215 29.9826 27.433L33.9103 32.7472C34.0873 33.0239 34.4126 33.4896 34.7369 33.7346C34.9517 33.8957 35.215 33.9808 35.4992 33.9808C36.1706 33.9808 37.0072 33.446 37.5582 33.0212L61.0639 16.3871Z" fill="#998EFF"/>
</g>
<defs>
<clipPath id="clip0_8527_223">
<rect width="65" height="65" fill="white" transform="translate(0.5)"/>
</clipPath>
</defs>
</svg>
