<svg width="65" height="65" viewBox="0 0 65 65" fill="none" xmlns="http://www.w3.org/2000/svg">
<path d="M56.4058 22.3184L51.4922 3.96709C51.4232 3.70931 51.3042 3.46763 51.1418 3.25588C50.9794 3.04412 50.7769 2.86644 50.5458 2.73298C50.3147 2.59952 50.0596 2.5129 49.7951 2.47807C49.5305 2.44324 49.2617 2.46088 49.0039 2.52998L46.2394 3.27139C46.0044 3.33261 45.7825 3.43584 45.5843 3.57608L39.6348 7.83053L34.4957 3.42678C33.9405 2.95007 33.2328 2.68797 32.501 2.68797C31.7692 2.68797 31.0616 2.95007 30.5063 3.42678L3.08446 27.0604C2.75295 27.3472 2.48724 27.7022 2.30548 28.1012C2.12372 28.5001 2.03018 28.9335 2.03126 29.3719V59.9219C2.03126 60.73 2.35227 61.505 2.92367 62.0764C3.49507 62.6478 4.27005 62.9688 5.07813 62.9688H59.9219C60.73 62.9688 61.5049 62.6478 62.0763 62.0764C62.6477 61.505 62.9688 60.73 62.9688 59.9219V29.3719C62.97 28.9331 62.8764 28.4992 62.6945 28.0999C62.5126 27.7006 62.2465 27.3453 61.9145 27.0583L56.4058 22.3184ZM60.9162 60.0296L42.379 45.1954L60.9375 30.3439V59.9219C60.9325 59.9582 60.9253 59.9941 60.9162 60.0296ZM4.06251 59.9219V30.3429L22.6261 45.1954L4.08384 60.0296C4.07458 59.9942 4.06746 59.9582 4.06251 59.9219ZM31.8622 40.4047C32.0439 40.2626 32.2679 40.1854 32.4985 40.1854C32.7291 40.1854 32.9531 40.2626 33.1348 40.4047L58.7986 60.9376H6.2004L31.8622 40.4047ZM49.527 4.49217L54.7838 24.113L52.8216 24.6381L47.5648 5.01826L49.527 4.49217ZM31.4844 15.6407L33.5867 23.4894L27.6961 25.0667C26.6546 25.3455 25.545 25.1991 24.6115 24.6598C23.6779 24.1205 22.9968 23.2324 22.718 22.191C22.4392 21.1495 22.5856 20.0399 23.1249 19.1063C23.6642 18.1728 24.5523 17.4917 25.5938 17.2129L31.4844 15.6407ZM33.1317 25.7137L34.972 32.5813C35.0415 32.8414 35.0049 33.1184 34.8703 33.3515C34.7357 33.5846 34.514 33.7547 34.254 33.8244C33.9939 33.8939 33.7169 33.8573 33.4838 33.7227C33.2507 33.5881 33.0806 33.3664 33.0109 33.1064L31.1706 26.2397L33.1317 25.7137ZM35.6302 23.264L33.3663 14.814L45.7194 5.97803L50.7437 24.7295L35.6302 23.264ZM31.8348 4.9624C32.0197 4.80124 32.2567 4.71245 32.502 4.71245C32.7473 4.71245 32.9844 4.80124 33.1693 4.9624L37.9326 9.0442L31.7596 13.4561L25.3104 15.1826C23.8032 15.5615 22.4907 16.4873 21.6282 17.78C20.7657 19.0728 20.4147 20.6401 20.6436 22.1772C20.7886 23.0111 21.1058 23.8056 21.5748 24.5101C22.0438 25.2146 22.6545 25.8137 23.3679 26.2692C24.0812 26.7247 24.8816 27.0266 25.7181 27.1556C26.5546 27.2847 27.4088 27.238 28.2263 27.0187L29.2074 26.7567L31.0202 33.5238C31.1762 34.1533 31.5206 34.7203 32.0074 35.1488C32.3838 35.4701 32.8328 35.6949 33.3155 35.8037C33.7983 35.9125 34.3002 35.9021 34.7781 35.7734C35.2571 35.6458 35.6977 35.4033 36.0618 35.0668C36.4258 34.7304 36.7023 34.3102 36.8672 33.8427C37.0713 33.2282 37.0837 32.5662 36.9027 31.9445L35.1102 25.2495L51.8213 26.8745C52.0635 26.8988 52.3082 26.8788 52.5434 26.8156L55.3099 26.0742C55.5692 26.0051 55.812 25.885 56.0242 25.7209C56.2365 25.5568 56.4138 25.352 56.5459 25.1185L60.2418 28.2984L40.754 43.8974L34.4013 38.8142C33.8611 38.3823 33.1901 38.147 32.4985 38.147C31.8069 38.147 31.1359 38.3823 30.5957 38.8142L24.2511 43.8923L4.7572 28.2984L31.8348 4.9624Z" fill="#998EFF"/>
<path d="M56.0784 13.251C56.1361 13.4671 56.2635 13.6581 56.4409 13.7944C56.6183 13.9307 56.8358 14.0045 57.0595 14.0046C57.1483 14.0046 57.2368 13.9927 57.3225 13.969L61.2469 12.9179C61.5071 12.8481 61.7289 12.6778 61.8636 12.4445C61.9982 12.2112 62.0347 11.9339 61.9649 11.6737C61.8952 11.4135 61.7249 11.1917 61.4916 11.057C61.2583 10.9224 60.981 10.8859 60.7208 10.9557L56.7964 12.0079C56.5364 12.0776 56.3148 12.2477 56.1801 12.4808C56.0455 12.7139 56.0089 12.9909 56.0784 13.251Z" fill="#998EFF"/>
<path d="M54.8865 8.27749C55.02 8.27759 55.1523 8.25137 55.2757 8.2003C55.3991 8.14924 55.5112 8.07435 55.6056 7.97991L58.4778 5.10772C58.5748 5.01404 58.6521 4.90197 58.7054 4.77806C58.7586 4.65415 58.7866 4.52088 58.7878 4.38602C58.7889 4.25117 58.7632 4.11743 58.7122 3.99261C58.6611 3.8678 58.5857 3.7544 58.4903 3.65904C58.395 3.56368 58.2816 3.48827 58.1568 3.4372C58.032 3.38614 57.8982 3.36044 57.7634 3.36161C57.6285 3.36278 57.4952 3.3908 57.3713 3.44403C57.2474 3.49726 57.1353 3.57463 57.0417 3.67163L54.1685 6.54382C54.0265 6.68585 53.9298 6.8668 53.8906 7.06379C53.8514 7.26077 53.8715 7.46494 53.9484 7.6505C54.0252 7.83605 54.1554 7.99466 54.3224 8.10626C54.4893 8.21786 54.6857 8.27745 54.8865 8.27749Z" fill="#998EFF"/>
<path d="M57.0601 18.7709C57.0255 18.8998 57.0167 19.0341 57.0341 19.1664C57.0514 19.2987 57.0947 19.4262 57.1614 19.5417C57.2281 19.6573 57.3168 19.7585 57.4227 19.8397C57.5285 19.921 57.6493 19.9805 57.7781 20.0151L61.7025 21.0662C61.7882 21.0899 61.8767 21.1018 61.9655 21.1018C62.212 21.1019 62.4501 21.0124 62.6354 20.8499C62.8208 20.6875 62.9407 20.4632 62.9729 20.2188C63.0051 19.9744 62.9474 19.7267 62.8104 19.5218C62.6735 19.3169 62.4667 19.1688 62.2286 19.1051L58.3042 18.0529C58.1754 18.0183 58.041 18.0095 57.9087 18.0268C57.7765 18.0442 57.6489 18.0875 57.5334 18.1542C57.4179 18.2209 57.3166 18.3096 57.2354 18.4155C57.1542 18.5213 57.0946 18.6421 57.0601 18.7709Z" fill="#998EFF"/>
</svg>
