<svg width="65" height="65" viewBox="0 0 65 65" fill="none" xmlns="http://www.w3.org/2000/svg">
<path fill-rule="evenodd" clip-rule="evenodd" d="M56.8762 62.0686H60.9658C61.5285 62.0686 61.9855 62.5255 61.9855 63.0882C61.9855 63.6509 61.5285 64.1078 60.9658 64.1078H4.03426C3.47156 64.1078 3.01465 63.6509 3.01465 63.0882C3.01465 62.5255 3.47156 62.0686 4.03426 62.0686H8.1239V39.1835H8.12735C8.12505 39.1422 8.1239 39.1008 8.1239 39.0594C8.1239 38.2057 8.60554 37.3682 9.54932 36.7283C10.6023 36.0143 12.2942 35.521 14.2098 35.521C16.1254 35.521 17.8173 36.0143 18.8703 36.7283C19.8141 37.3682 20.2957 38.2057 20.2957 39.0594C20.2957 39.1008 20.2946 39.1422 20.2923 39.1835H20.2957V62.0686H26.4141V28.0683C26.4141 27.2147 26.8958 26.3771 27.8396 25.7372C28.8926 25.0232 30.5845 24.53 32.5001 24.53C34.4156 24.53 36.1076 25.0232 37.1606 25.7372C38.1043 26.3771 38.586 27.2147 38.586 28.0683V62.0686H44.7044V15.0304C44.7044 14.1769 45.186 13.3394 46.1298 12.6995C47.1828 11.9855 48.8747 11.4921 50.7903 11.4921C52.7059 11.4921 54.3978 11.9855 55.4508 12.6995C56.3946 13.3394 56.8762 14.1769 56.8762 15.0304V62.0686ZM10.1631 62.0686H18.2565V41.7457C17.2142 42.2629 15.7879 42.5977 14.2098 42.5977C12.6317 42.5977 11.2054 42.2629 10.1631 41.7457V62.0686ZM28.4534 62.0686H36.5468V30.7547C35.5045 31.2717 34.0781 31.6066 32.5001 31.6066C30.922 31.6066 29.4956 31.2717 28.4534 30.7547V62.0686ZM46.7436 62.0686H54.837V17.7168C53.7947 18.234 52.3684 18.5688 50.7903 18.5688C49.2122 18.5688 47.7859 18.234 46.7436 17.7168V62.0686ZM36.5468 28.0683C36.5468 27.8077 36.3042 27.6203 36.0162 27.425C35.2246 26.8883 33.94 26.5692 32.5001 26.5692C31.0601 26.5692 29.7755 26.8883 28.9839 27.425C28.6959 27.6203 28.4534 27.8077 28.4534 28.0683C28.4534 28.3288 28.6959 28.5161 28.9839 28.7115C29.7755 29.2482 31.0601 29.5673 32.5001 29.5673C33.94 29.5673 35.2246 29.2482 36.0162 28.7115C36.3042 28.5161 36.5468 28.3288 36.5468 28.0683ZM54.837 15.0304C54.837 14.77 54.5944 14.5825 54.3064 14.3873C53.5148 13.8506 52.2302 13.5313 50.7903 13.5313C49.3503 13.5313 48.0658 13.8506 47.2742 14.3873C46.9863 14.5825 46.7436 14.77 46.7436 15.0304C46.7436 15.2909 46.9863 15.4784 47.2742 15.6736C48.0658 16.2103 49.3503 16.5296 50.7903 16.5296C52.2302 16.5296 53.5148 16.2103 54.3064 15.6736C54.5944 15.4784 54.837 15.2909 54.837 15.0304ZM14.2098 37.5602C12.7699 37.5602 11.4853 37.8794 10.6937 38.4161C10.4057 38.6114 10.1631 38.7989 10.1631 39.0594C10.1631 39.3199 10.4057 39.5072 10.6937 39.7025C11.4853 40.2392 12.7699 40.5585 14.2098 40.5585C15.6498 40.5585 16.9343 40.2392 17.7259 39.7025C18.0138 39.5072 18.2565 39.3199 18.2565 39.0594C18.2565 38.7989 18.0138 38.6114 17.7259 38.4161C16.9343 37.8794 15.6498 37.5602 14.2098 37.5602ZM51.5374 4.5157C39.0189 15.2049 25.3204 21.9571 12.366 26.3215C11.8327 26.5012 11.2538 26.2141 11.0741 25.6808C10.8944 25.1476 11.1816 24.5687 11.7148 24.3891C24.3962 20.1166 37.8063 13.521 50.0701 3.08697L48.1106 3.19148C47.5487 3.22143 47.0682 2.7895 47.0383 2.22757C47.0082 1.66564 47.4401 1.18502 48.002 1.15507L52.9053 0.893539C53.2113 0.877225 53.5084 0.999323 53.7144 1.22619C53.9204 1.45292 54.0135 1.76033 53.968 2.06328L53.2607 6.77043C53.1771 7.32688 52.6574 7.71076 52.1009 7.62716C51.5444 7.54355 51.1605 7.02393 51.2441 6.46748L51.5374 4.5157Z" fill="#998EFF"/>
</svg>
