<svg width="65" height="65" viewBox="0 0 65 65" fill="none" xmlns="http://www.w3.org/2000/svg">
<g clip-path="url(#clip0_8527_187)">
<path d="M27.0978 4.34595C14.5381 4.34595 4.35645 14.5276 4.35645 27.0873C4.35645 39.6471 14.5381 49.8287 27.0978 49.8287C39.6576 49.8287 49.8392 39.6471 49.8392 27.0873C49.8255 14.5333 39.6519 4.35962 27.0978 4.34595ZM27.0978 6.51179C33.787 6.51707 40.0554 9.77721 43.9004 15.251L41.1931 17.9583C40.5343 17.5596 39.7801 17.3463 39.01 17.341C36.6177 17.341 34.6783 19.2804 34.6783 21.6727C34.6821 22.4436 34.8942 23.1991 35.2923 23.8591L28.2013 30.9501C26.8586 30.1314 25.1712 30.1314 23.8285 30.9501L18.9033 26.025C19.3015 25.3649 19.5136 24.6095 19.5174 23.8386C19.5203 21.451 17.5873 19.5131 15.1998 19.5101C13.2252 19.5077 11.4999 20.8433 11.0078 22.7556H6.99011C9.04049 13.2872 17.41 6.52601 27.0978 6.51179ZM41.1758 21.6727C41.1758 22.8689 40.2062 23.8386 39.01 23.8386C37.8137 23.8386 36.8441 22.8689 36.8441 21.6727C36.8441 20.4765 37.8137 19.5069 39.01 19.5069C40.2062 19.5069 41.1758 20.4765 41.1758 21.6727ZM28.1807 34.6678C28.1807 35.864 27.2111 36.8336 26.0149 36.8336C24.8187 36.8336 23.8491 35.864 23.8491 34.6678C23.8491 33.4716 24.8187 32.5019 26.0149 32.5019C27.2111 32.5019 28.1807 33.4716 28.1807 34.6678ZM17.3515 23.8386C17.3515 25.0348 16.3819 26.0044 15.1857 26.0044C13.9894 26.0044 13.0198 25.0348 13.0198 23.8386C13.0198 22.6423 13.9894 21.6727 15.1857 21.6727C16.3819 21.6727 17.3515 22.6423 17.3515 23.8386ZM37.0951 45.0782C34.0369 46.7762 30.5959 47.6658 27.0978 47.6627C15.742 47.6704 6.53001 38.4711 6.52229 27.1153C6.52175 26.3825 6.56046 25.65 6.63816 24.9213H11.0078C11.5001 26.828 13.2165 28.1627 15.1857 28.1701C15.9566 28.1663 16.7121 27.9542 17.3721 27.5561L22.2972 32.4812C21.8991 33.1413 21.687 33.8967 21.6832 34.6676C21.6832 37.06 23.6226 38.9993 26.0149 38.9993C28.4072 38.9993 30.3466 37.06 30.3466 34.6676C30.3428 33.8967 30.1307 33.1413 29.7326 32.4812L36.8236 25.3902C37.4836 25.7884 38.2391 26.0005 39.01 26.0043C41.4023 26.0043 43.3417 24.0649 43.3417 21.6726C43.3379 20.9017 43.1258 20.1462 42.7276 19.4862L45.0884 17.1265C50.5998 27.0525 47.021 39.5669 37.0951 45.0782Z" fill="#998EFF"/>
<path d="M54.1707 10.8437C56.1399 10.8362 57.8563 9.50168 58.3486 7.59492H65V5.42908H58.3486C57.8563 3.52232 56.1399 2.18776 54.1707 2.18031C51.7784 2.18031 49.839 4.11969 49.839 6.512C49.8428 7.28291 50.0549 8.03838 50.453 8.69842L48.5504 10.6011C39.4464 -1.25973 22.451 -3.49461 10.5901 5.60938C-1.27072 14.7134 -3.5056 31.7089 5.5984 43.5698C14.1919 54.7654 29.9445 57.4813 41.7908 49.8094L45.059 53.0777L46.5903 54.6089L55.3078 63.3265C57.5249 65.5436 61.1194 65.5436 63.3366 63.3265C65.5537 61.1093 65.5537 57.5148 63.3366 55.2977L54.6191 46.5801L53.0878 45.0489L49.8195 41.7806C55.6212 32.8443 55.6212 21.3308 49.8195 12.3944L51.9854 10.2286C52.645 10.6268 53.4002 10.8394 54.1707 10.8437ZM54.1707 4.34615C55.3669 4.34615 56.3366 5.31578 56.3366 6.512C56.3366 7.70822 55.3669 8.67785 54.1707 8.67785C52.9745 8.67785 52.0049 7.70822 52.0049 6.512C52.0049 5.31578 52.9746 4.34615 54.1707 4.34615ZM61.8053 56.8289C63.1923 58.1847 63.2176 60.4083 61.8618 61.7952C60.506 63.1822 58.2824 63.2075 56.8955 61.8517C56.8764 61.8331 56.8577 61.8143 56.839 61.7952L48.1215 53.0777L53.0878 48.1114L61.8053 56.8289ZM51.5565 46.5801L46.5903 51.5464L43.5927 48.5489C43.7454 48.4319 43.8884 48.3031 44.0389 48.1829C44.1894 48.0627 44.3638 47.9186 44.5251 47.7833C44.7623 47.584 44.9962 47.3826 45.2258 47.1758C45.3438 47.0675 45.4564 46.9592 45.5723 46.8509C46.0163 46.435 46.4462 46.0051 46.8621 45.5611C46.9704 45.4452 47.0787 45.3326 47.187 45.2146C47.3938 44.985 47.5952 44.7511 47.7945 44.5139C47.9302 44.3537 48.0634 44.1916 48.1941 44.0277C48.3132 43.8783 48.4421 43.7353 48.559 43.5826L51.5565 46.5801ZM47.357 41.55C47.0159 42.0265 46.6639 42.4932 46.2925 42.9426C46.1842 43.0736 46.0683 43.2003 45.9568 43.3292C45.6254 43.7147 45.2832 44.0887 44.9301 44.4511C44.7764 44.6099 44.62 44.7662 44.4612 44.92C44.1002 45.2731 43.7263 45.6153 43.3393 45.9466C43.2105 46.0549 43.0838 46.173 42.9527 46.2823C42.5033 46.6538 42.0366 47.0057 41.5601 47.3469C30.3497 55.3557 14.7693 52.7604 6.76037 41.55C-1.24852 30.3396 1.34684 14.7591 12.5573 6.75024C23.7677 -1.25865 39.3481 1.33658 47.357 12.5471C53.5541 21.2216 53.5541 32.8755 47.357 41.55Z" fill="#998EFF"/>
</g>
<defs>
<clipPath id="clip0_8527_187">
<rect width="65" height="65" fill="white"/>
</clipPath>
</defs>
</svg>
