<svg width="66" height="65" viewBox="0 0 66 65" fill="none" xmlns="http://www.w3.org/2000/svg">
<g clip-path="url(#clip0_8527_263)">
<path d="M12.6565 53.8816C12.395 53.8816 12.1413 53.7466 11.9998 53.5066L3.61832 39.2891C3.41227 38.9396 3.51637 38.4899 3.85496 38.2665L14.9964 30.9158C17.8411 29.0515 20.5441 25.416 22.8545 22.1547C23.0976 21.8116 23.5733 21.7302 23.9163 21.9734C24.2596 22.2167 24.3407 22.6921 24.0976 23.0353C21.7065 26.4105 18.8986 30.1797 15.8334 32.1886L5.29841 39.1392L12.9444 52.109L24.1285 46.2558C27.3396 44.5636 32.0053 43.938 36.1263 43.4846C36.5423 43.4383 36.9208 43.7402 36.9667 44.1585C37.0127 44.5767 36.7111 44.953 36.2929 44.9989C32.311 45.4371 27.8135 46.0359 24.8368 47.6045L13.0092 53.7946C12.8966 53.8535 12.7757 53.8816 12.6565 53.8816Z" fill="#998EFF"/>
<path d="M5.1951 52.5142C3.62888 52.5144 2.10176 51.7101 1.25041 50.2659C-0.0294026 48.0949 0.695627 45.2876 2.86653 44.0077L6.1475 42.0736C6.32143 41.9709 6.529 41.9417 6.72476 41.9922C6.92039 42.0428 7.08784 42.169 7.19042 42.343L11.0587 48.905C11.2723 49.2673 11.1517 49.7343 10.7893 49.948L7.50831 51.8821C6.78163 52.3106 5.98335 52.5142 5.1951 52.5142ZM6.26493 43.7729L3.64018 45.3202C2.19291 46.1734 1.7096 48.045 2.56285 49.4922C3.41598 50.9394 5.28752 51.4231 6.73491 50.5696L9.35967 49.0223L6.26493 43.7729Z" fill="#998EFF"/>
<path d="M38.853 47.7575C37.9572 47.7575 37.1184 47.2786 36.6639 46.5075L21.4291 20.6086C20.7185 19.403 21.1213 17.8434 22.3272 17.1325C23.5338 16.4219 25.0936 16.8246 25.8041 18.0304L41.0389 43.9295C41.3829 44.5132 41.4793 45.1965 41.3097 45.8532C41.1399 46.5099 40.7249 47.0613 40.1405 47.4056C39.7503 47.6357 39.3049 47.7575 38.853 47.7575ZM23.6152 18.3044C23.4399 18.3044 23.2624 18.3496 23.1008 18.4448C22.6186 18.729 22.4575 19.353 22.7419 19.8355L37.9766 45.7345C38.1608 46.047 38.4885 46.234 38.8529 46.234C39.0329 46.234 39.2105 46.1853 39.3666 46.0933C39.6006 45.9554 39.7667 45.7349 39.8346 45.4722C39.9024 45.2095 39.8638 44.9361 39.7262 44.7025L24.4914 18.8033C24.3025 18.4829 23.9632 18.3044 23.6152 18.3044Z" fill="#998EFF"/>
<path d="M21.1345 49.485C20.8736 49.485 20.6196 49.351 20.4775 49.11L11.5876 34.03C11.5856 34.0266 11.5821 34.0203 11.58 34.0168C11.3722 33.651 11.5003 33.186 11.8661 32.9782C12.2317 32.7705 12.6967 32.8983 12.9047 33.2642L21.79 48.3365C22.0036 48.6988 21.883 49.1659 21.5206 49.3795C21.3991 49.4509 21.2659 49.485 21.1345 49.485Z" fill="#998EFF"/>
<path d="M24.0242 61.9164C23.8321 61.9164 23.642 61.8441 23.4962 61.704L14.0768 52.6553C13.7734 52.3638 13.7637 51.8817 14.0552 51.5784C14.3467 51.2748 14.8288 51.2652 15.1323 51.5567L24.1349 60.2051L29.3328 57.1408L20.9323 49.0941C20.6285 48.8032 20.6181 48.3209 20.909 48.0172C21.1999 47.7133 21.6822 47.7027 21.986 47.994L31.1128 56.7362C31.2849 56.9013 31.37 57.1373 31.3426 57.3742C31.315 57.6109 31.1782 57.8213 30.9727 57.9425L24.4108 61.8109C24.2904 61.8818 24.1569 61.9164 24.0242 61.9164Z" fill="#998EFF"/>
<path d="M35.8003 37.2963C35.525 37.2963 35.2593 37.1466 35.1237 36.8853C34.93 36.5121 35.0754 36.0521 35.4489 35.8584C35.5344 35.814 35.6201 35.7666 35.7035 35.7177C36.8417 35.0468 37.6514 33.9717 37.9823 32.6912C38.3131 31.4107 38.1256 30.0785 37.4543 28.94C36.0676 26.5876 33.0262 25.8018 30.6742 27.1881C30.5922 27.2364 30.5127 27.287 30.4342 27.3386C30.0828 27.5698 29.6105 27.4721 29.3792 27.1205C29.1481 26.7689 29.2458 26.2967 29.5973 26.0655C29.7075 25.993 29.8068 25.9309 29.9006 25.8756C32.976 24.0629 36.9535 25.0901 38.7665 28.1662C39.6446 29.6553 39.89 31.3978 39.4571 33.0723C39.0244 34.7467 37.9657 36.1527 36.4759 37.0308C36.3686 37.0938 36.2595 37.1541 36.1505 37.2106C36.0385 37.2687 35.9185 37.2963 35.8003 37.2963Z" fill="#998EFF"/>
<path d="M39.5412 16.8875C39.4575 16.8875 39.3725 16.8736 39.2891 16.8443C38.8921 16.705 38.6833 16.2704 38.8224 15.8734L40.7139 10.4827C40.8533 10.0857 41.2878 9.877 41.6847 10.0161C42.0817 10.1554 42.2905 10.5901 42.1514 10.9871L40.2599 16.3778C40.1499 16.6913 39.8555 16.8875 39.5412 16.8875Z" fill="#998EFF"/>
<path d="M54.6938 30.67C54.6679 30.67 54.6416 30.6688 54.6152 30.666L48.932 30.0831C48.5136 30.0402 48.2092 29.6661 48.2521 29.2477C48.295 28.8293 48.6681 28.5244 49.0876 28.5677L54.7707 29.1505C55.1892 29.1934 55.4936 29.5676 55.4507 29.986C55.4105 30.378 55.0796 30.67 54.6938 30.67Z" fill="#998EFF"/>
<path d="M45.5241 22.9308C45.2925 22.9308 45.0638 22.8255 44.9141 22.6261C44.6617 22.2895 44.7299 21.812 45.0664 21.5597L49.6368 18.1319C49.9734 17.8794 50.4508 17.9477 50.703 18.2843C50.9554 18.6208 50.8872 19.0983 50.5507 19.3507L45.9804 22.7784C45.8435 22.881 45.6831 22.9308 45.5241 22.9308Z" fill="#998EFF"/>
<path d="M7.48047 19.1699C7.41229 19.1699 7.34387 19.1608 7.27684 19.1421C7.05518 19.0805 6.87312 18.9221 6.78172 18.711L5.33001 15.3613H1.38672C0.966123 15.3613 0.625 15.0202 0.625 14.5996V0.888672C0.625 0.468076 0.966123 0.126953 1.38672 0.126953H20.4297C20.8503 0.126953 21.1914 0.468076 21.1914 0.888672V14.5996C21.1914 15.0202 20.8503 15.3613 20.4297 15.3613H13.0566L7.92315 19.028C7.79265 19.1213 7.63751 19.1699 7.48047 19.1699ZM2.14844 13.8379H5.83008C6.13375 13.8379 6.40835 14.0182 6.52895 14.2967L7.80458 17.2405L12.3697 13.9797C12.4989 13.8875 12.6538 13.8379 12.8125 13.8379H19.668V1.65039H2.14844V13.8379Z" fill="#998EFF"/>
<path d="M64.6143 64.873H45.5713C45.1507 64.873 44.8096 64.5319 44.8096 64.1113V48.877C44.8096 48.4564 45.1507 48.1152 45.5713 48.1152H64.6143C65.0349 48.1152 65.376 48.4564 65.376 48.877V64.1113C65.376 64.5319 65.035 64.873 64.6143 64.873ZM46.333 63.3496H63.8525V49.6387H46.333V63.3496Z" fill="#998EFF"/>
<path d="M55.0879 57.2559C54.9196 57.2559 54.7513 57.2003 54.6121 57.0891L45.0906 49.4719C44.7621 49.2091 44.7089 48.7297 44.9715 48.4012C45.2345 48.0726 45.7138 48.0196 46.0423 48.2821L55.0879 55.5187L64.1336 48.2821C64.4623 48.0193 64.9414 48.0728 65.2043 48.4012C65.467 48.7297 65.4138 49.209 65.0852 49.4719L55.5638 57.0891C55.4246 57.2003 55.2563 57.2559 55.0879 57.2559Z" fill="#998EFF"/>
</g>
<defs>
<clipPath id="clip0_8527_263">
<rect width="65" height="65" fill="white" transform="translate(0.5)"/>
</clipPath>
</defs>
</svg>
